<?xml version="1.0" encoding="utf-8"?>
<!-- Generator: Adobe Illustrator 19.2.1, SVG Export Plug-In . SVG Version: 6.00 Build 0)  -->
<svg version="1.1" id="Capa_1" xmlns="http://www.w3.org/2000/svg" xmlns:xlink="http://www.w3.org/1999/xlink" x="0px" y="0px"
	 viewBox="0 0 348.3 348.3" style="enable-background:new 0 0 348.3 348.3;" xml:space="preserve">
<style type="text/css">
	.st0{fill:#FFFFFF;}
</style>
<g>
	<path class="st0" d="M336.6,68.6L231,174.2l105.5,105.5c15.7,15.7,15.7,41.1,0,56.9c-7.8,7.8-18.1,11.8-28.4,11.8
		c-10.3,0-20.6-3.9-28.4-11.8L174.2,231L68.6,336.6c-7.8,7.8-18.1,11.8-28.4,11.8c-10.3,0-20.6-3.9-28.4-11.8
		c-15.7-15.7-15.7-41.1,0-56.9l105.5-105.5L11.8,68.6c-15.7-15.7-15.7-41.1,0-56.8c15.7-15.7,41.1-15.7,56.8,0l105.6,105.6
		L279.7,11.8c15.7-15.7,41.1-15.7,56.8,0C352.3,27.5,352.3,52.9,336.6,68.6z"/>
</g>
</svg>
