<svg width="21" height="21" viewBox="0 0 21 21" fill="none" xmlns="http://www.w3.org/2000/svg">
<circle cx="10.3701" cy="10.6322" r="10" fill="white"/>
<path d="M9.28467 13.4667C9.29639 12.7694 9.37549 12.2186 9.52197 11.8143C9.66846 11.41 9.96729 10.9618 10.4185 10.4696L11.5698 9.28308C12.062 8.72644 12.3081 8.12878 12.3081 7.49011C12.3081 6.87488 12.147 6.39441 11.8247 6.04871C11.5024 5.69714 11.0337 5.52136 10.4185 5.52136C9.8208 5.52136 9.34033 5.67957 8.97705 5.99597C8.61377 6.31238 8.43213 6.73718 8.43213 7.27039H6.80615C6.81787 6.32117 7.15479 5.55652 7.81689 4.97644C8.48486 4.3905 9.35205 4.09753 10.4185 4.09753C11.5259 4.09753 12.3872 4.39636 13.0024 4.99402C13.6235 5.58582 13.9341 6.40027 13.9341 7.43738C13.9341 8.46277 13.4595 9.47351 12.5103 10.4696L11.5522 11.4188C11.1245 11.8934 10.9106 12.576 10.9106 13.4667H9.28467ZM9.21436 16.2528C9.21436 15.9891 9.29346 15.7694 9.45166 15.5936C9.61572 15.412 9.85596 15.3212 10.1724 15.3212C10.4888 15.3212 10.729 15.412 10.8931 15.5936C11.0571 15.7694 11.1392 15.9891 11.1392 16.2528C11.1392 16.5165 11.0571 16.7362 10.8931 16.912C10.729 17.0819 10.4888 17.1669 10.1724 17.1669C9.85596 17.1669 9.61572 17.0819 9.45166 16.912C9.29346 16.7362 9.21436 16.5165 9.21436 16.2528Z" fill="#2196F3"/>
</svg>
