<?xml version="1.0" encoding="utf-8"?>
<!-- Generator: Adobe Illustrator 19.2.1, SVG Export Plug-In . SVG Version: 6.00 Build 0)  -->
<svg version="1.1" id="svg" xmlns="http://www.w3.org/2000/svg" xmlns:xlink="http://www.w3.org/1999/xlink" x="0px" y="0px"
	 viewBox="0 0 400 400" style="enable-background:new 0 0 400 400;" xml:space="preserve">
<style type="text/css">
	.st0{fill:#939393;}
</style>
<g id="svgg">
	<path id="path0" class="st0" d="M149.3,106.8c-182.6,20.5-190.6,145.6-10.7,168.7c8.3,1.1,18.5,2.4,22.6,2.9l7.5,0.9l0.5,23.8
		l0.5,23.8l44.4-34.6c24.4-19,44.4-35.4,44.4-36.4c0-1-20-17.4-44.4-36.4l-44.4-34.6l-0.5,23.2l-0.5,23.2l-10.2-1.2
		c-44.4-5.1-85.6-18.8-99-32.8l-5.2-5.5l5.8-6c42.9-44.3,240.6-44,279.5,0.3l5.4,6.1l-5,5.3c-5.9,6.3-23.4,15.3-40.1,20.8l-12,3.9
		v24.1v24.1l6.6-1.2c85.5-16,123.4-76.8,75.2-120.5C332.9,115.5,236.4,97.1,149.3,106.8"/>
</g>
</svg>
