<?xml version="1.0" encoding="utf-8"?>
<!-- Generator: Adobe Illustrator 19.2.1, SVG Export Plug-In . SVG Version: 6.00 Build 0)  -->
<svg version="1.1" id="Layer_1" xmlns="http://www.w3.org/2000/svg" xmlns:xlink="http://www.w3.org/1999/xlink" x="0px" y="0px"
	 viewBox="0 0 86 32" style="enable-background:new 0 0 86 32;" xml:space="preserve">
<style type="text/css">
	.st0{fill:#FFFFFF;}
</style>
<title>image2vector</title>
<path class="st0" d="M48.2,1c-2.5,0.6-3.7,1.9-3.7,3.9c0,2.4,1.3,3.5,5.6,4.6c2.1,0.5,2.8,1.5,1.8,2.4c-1.1,1-3.3,0.4-3.6-1.1
	c-0.1-0.7-0.1-0.7-2.4-0.6l-2,0.1L44,11c0.2,1,1,2.5,1.7,3.1c2.1,1.8,7.7,1.6,9.7-0.3l0.6-0.6l0.1,0.6c0.4,2.4,2.8,4.6,5.6,5.2
	l0.9,0.2L62,20c-1.7,2.3-1.8,6.9-0.1,9.3c2.6,3.7,9.8,3.6,12.2-0.2l0.4-0.7v3.3h11.2v-3.6h-6.7V17.7h-4.5l0,1.6c0,1.3,0,1.5-0.2,1.3
	c-0.9-1.4-2.5-2.6-4.2-2.9l-0.9-0.2l0.9-0.7c2.8-2.1,4.5-5.9,4.1-9c-1.2-8.1-12.8-8.2-17.2-0.2c-0.3,0.5-0.5,1-0.5,1
	s-0.4-0.3-0.9-0.8c-1-1-1.8-1.3-4.5-2c-2.5-0.6-3-1.1-2.2-1.8c0.8-0.8,2.5-0.3,2.9,0.8c0.2,0.6,0.2,0.6,2.8,0.5l1.5-0.1l-0.1-0.6
	C55.8,1.7,52.2,0.1,48.2,1L48.2,1z M0.9,8.2v7h4.5V9.6h0.5c0.7,0,1.2,0.5,2.6,3.1l1.3,2.4l2.5,0c1.4,0,2.5,0,2.5-0.1
	c0-0.8-2.8-5.4-3.6-5.8L10.8,9l0.9-0.5c3.2-1.7,2.6-6.5-0.9-7.3c-0.4-0.1-2.7-0.2-5.3-0.2H0.9L0.9,8.2L0.9,8.2z M68.9,2.4
	c7.1,1.8,6.4,11.8-1,15.4c-7.6,3.7-14.3-2.4-10.7-9.6C59.3,3.9,64.7,1.3,68.9,2.4L68.9,2.4z M8.6,4.3c1.6,0.8,0.5,2.3-1.7,2.4
	L5.5,6.8V4.1l1.4,0C7.6,4.1,8.4,4.2,8.6,4.3L8.6,4.3z M66.4,5.5c-1.2,0.3-2.5,1.6-2.5,2.5c0,1.5,1.2,2,3,1.4c1.1-0.4,1.4-0.4,1.6,0
	c0.4,0.7-0.8,1.3-1.5,0.9c-0.3-0.2-1.6,0.5-1.6,1c0,0.7,1.7,0.9,2.8,0.4c3.4-1.7,2.4-5.3-1.1-4.1c-1.4,0.5-1.7,0.5-1.7,0.1
	c0-0.6,0.9-1,1.4-0.6c0.2,0.2,1.4-0.7,1.4-1C68.3,5.7,67.2,5.4,66.4,5.5L66.4,5.5z M61.9,8.9c-0.7,0.5-0.8,0.4,0.6,2.3
	c0.8,1.2,1.2,1.8,1.1,2.1c-0.1,0.5-0.6,0.6-1,0.2c-0.2-0.2-0.3-0.2-0.9,0.3c-1.4,1.2,0.7,2.3,2.4,1.1c1.8-1.2,1.8-2,0-4.6
	C62.8,8.4,62.8,8.3,61.9,8.9L61.9,8.9z M4.7,17.5c-2.6,0.4-4,1.9-4.1,4.1c0,2.2,1.4,3.5,5,4.4c2.2,0.5,2.9,1,2.9,1.7
	c0,2-3.6,1.8-4-0.2c-0.1-0.7-0.1-0.7-2.4-0.6l-2,0.1l0.1,0.6c0.5,2.9,2.2,4.2,6,4.3c3,0.1,4.1-0.2,5.4-1.5l0.9-0.9l0.3,0.4
	c1.9,2.6,8.4,2.8,10.5,0.3c0.6-0.7,1.3-2.1,1.4-2.7c0-0.4,0-0.5-1.9-1l-1.9-0.6l-0.3,0.8c-0.9,2.6-4.2,2.7-4.9,0
	c-0.2-0.9-0.2-3,0.1-3.9c0.7-2.2,3.4-2.7,4.6-0.7c0.5,0.8,0.3,0.8,2.5,0.3c2-0.5,1.9-0.4,1.5-1.4c-1.8-3.9-8-4.9-11.3-1.7L12,20.1
	l-0.4-0.6C10.7,17.9,7.8,17,4.7,17.5L4.7,17.5z M47.8,17.5c-1.7,0.3-3.4,1.4-4.4,2.8c-0.3,0.4-0.3,0.3-0.3-1.1l0-1.5h-4.5v4.8H34
	v-4.8h-4.5v14H34v-5.6h4.5v5.6h4.5v-3.2l0.5,0.7c2,3.1,8.3,3.6,11.2,1c3.3-3.1,2.7-10-1.1-12C52.2,17.5,49.6,17.2,47.8,17.5
	L47.8,17.5z M7.2,20.4c0.3,0.1,0.6,0.5,0.7,0.9l0.3,0.6l3.1-0.1l-0.1,0.8c-0.1,1.1-0.2,1.1-1.1,0.7c-0.4-0.2-1.6-0.5-2.6-0.8
	c-2.4-0.6-2.7-0.7-2.8-1.2C4.5,20.4,6.1,19.8,7.2,20.4L7.2,20.4z M50.4,21c2.3,0.6,2.8,5.9,0.6,7.2c-1.6,0.9-3.6,0.1-4.1-1.6
	C46,23,47.8,20.2,50.4,21z M68.8,21c2.7,0.7,2.6,6.8-0.1,7.5c-2.2,0.6-3.6-0.9-3.6-3.8C65.1,21.8,66.5,20.3,68.8,21L68.8,21z"/>
</svg>
