<svg width="21" height="21" viewBox="0 0 21 21" fill="none" xmlns="http://www.w3.org/2000/svg">
<circle cx="10.1919" cy="10.1002" r="10" fill="white"/>
<path fill-rule="evenodd" clip-rule="evenodd" d="M14.9523 10.7241C14.9763 10.5241 14.9923 10.3161 14.9923 10.1001C14.9923 9.88413 14.9763 9.67613 14.9443 9.47613L16.2963 8.42013C16.4163 8.32413 16.4483 8.14813 16.3763 8.01213L15.0963 5.79613C15.0163 5.65213 14.8483 5.60413 14.7043 5.65213L13.1123 6.29213C12.7763 6.03613 12.4243 5.82813 12.0323 5.66813L11.7923 3.97213C11.7683 3.81213 11.6323 3.70013 11.4723 3.70013H8.91229C8.75229 3.70013 8.62429 3.81213 8.60029 3.97213L8.36029 5.66813C7.96829 5.82813 7.60829 6.04413 7.28029 6.29213L5.68829 5.65213C5.54429 5.59613 5.37629 5.65213 5.29629 5.79613L4.01629 8.01213C3.93629 8.15613 3.96829 8.32413 4.09629 8.42013L5.44829 9.47613C5.41629 9.67613 5.39229 9.89213 5.39229 10.1001C5.39229 10.3081 5.40829 10.5241 5.44029 10.7241L4.08829 11.7801C3.96829 11.8761 3.93629 12.0521 4.00829 12.1881L5.28829 14.4041C5.36829 14.5481 5.53629 14.5961 5.68029 14.5481L7.27229 13.9081C7.60829 14.1641 7.96029 14.3721 8.35229 14.5321L8.59229 16.2281C8.62429 16.3881 8.75229 16.5001 8.91229 16.5001H11.4723C11.6323 16.5001 11.7683 16.3881 11.7843 16.2281L12.0243 14.5321C12.4163 14.3721 12.7763 14.1561 13.1043 13.9081L14.6963 14.5481C14.8403 14.6041 15.0083 14.5481 15.0883 14.4041L16.3683 12.1881C16.4483 12.0441 16.4163 11.8761 16.2883 11.7801L14.9523 10.7241ZM10.1923 12.5001C8.87229 12.5001 7.79229 11.4201 7.79229 10.1001C7.79229 8.78013 8.87229 7.70013 10.1923 7.70013C11.5123 7.70013 12.5923 8.78013 12.5923 10.1001C12.5923 11.4201 11.5123 12.5001 10.1923 12.5001Z" fill="#2F80ED"/>
</svg>
