<svg viewBox="0 0 114 108" fill="none" xmlns="http://www.w3.org/2000/svg">
    <defs>
      <linearGradient id="paint0_linear" x1="52.5825" y1="118.412" x2="-84.5031" y2="-30.1142"
        gradientUnits="userSpaceOnUse">
        <stop offset="0.0647506" stop-color="#FEBDAB" stop-opacity="0.74" />
        <stop offset="0.225114" stop-color="#F3A9F8" stop-opacity="0.66" />
        <stop offset="0.45571" stop-color="#E0D8F0" />
        <stop offset="0.823271" stop-color="#EAF7FE" />
        <stop offset="0.991019" stop-color="#EAF7FE" />
      </linearGradient>
      <linearGradient id="paint1_linear" x1="52.5825" y1="118.412" x2="-84.5031" y2="-30.1142"
        gradientUnits="userSpaceOnUse">
        <stop offset="0.0647506" stop-color="#FEBDAB" stop-opacity="0.74" />
        <stop offset="0.225114" stop-color="#F3A9F8" stop-opacity="0.66" />
        <stop offset="0.45571" stop-color="#E0D8F0" />
        <stop offset="0.823271" stop-color="#EAF7FE" />
        <stop offset="0.991019" stop-color="#EAF7FE" />
      </linearGradient>
      <linearGradient id="paint2_linear" x1="52.5825" y1="118.412" x2="-84.5031" y2="-30.1142"
        gradientUnits="userSpaceOnUse">
        <stop offset="0.0647506" stop-color="#FED290" stop-opacity="0.7" />
        <stop offset="0.614306" stop-color="#FEBDAB" />
        <stop offset="0.65625" stop-color="#FED290" stop-opacity="0.7" />
      </linearGradient>
      <linearGradient id="paint3_linear" x1="48.3398" y1="42.0381" x2="47.9494" y2="33.5081"
        gradientUnits="userSpaceOnUse">
        <stop offset="0.0647506" stop-color="#FEBDAB" stop-opacity="0.74" />
        <stop offset="0.225114" stop-color="#F3A9F8" stop-opacity="0.66" />
        <stop offset="0.45571" stop-color="#E0D8F0" />
        <stop offset="0.823271" stop-color="#EAF7FE" />
        <stop offset="0.991019" stop-color="#EAF7FE" />
      </linearGradient>
      <linearGradient id="paint4_linear" x1="48.3398" y1="42.0381" x2="47.9494" y2="33.5081"
        gradientUnits="userSpaceOnUse">
        <stop offset="0.0647506" stop-color="#FEBDAB" stop-opacity="0.74" />
        <stop offset="0.225114" stop-color="#F3A9F8" stop-opacity="0.66" />
        <stop offset="0.45571" stop-color="#E0D8F0" />
        <stop offset="0.823271" stop-color="#EAF7FE" />
        <stop offset="0.991019" stop-color="#EAF7FE" />
      </linearGradient>
      <linearGradient id="paint5_linear" x1="48.3398" y1="42.0381" x2="47.9494" y2="33.5081"
        gradientUnits="userSpaceOnUse">
        <stop offset="0.0647506" stop-color="#FED290" stop-opacity="0.7" />
        <stop offset="0.614306" stop-color="#FEBDAB" />
        <stop offset="0.65625" stop-color="#FED290" stop-opacity="0.7" />
      </linearGradient>
      <linearGradient id="paint6_linear" x1="48.3398" y1="54.2645" x2="47.9494" y2="45.7345"
        gradientUnits="userSpaceOnUse">
        <stop offset="0.0647506" stop-color="#FEBDAB" stop-opacity="0.74" />
        <stop offset="0.225114" stop-color="#F3A9F8" stop-opacity="0.66" />
        <stop offset="0.45571" stop-color="#E0D8F0" />
        <stop offset="0.823271" stop-color="#EAF7FE" />
        <stop offset="0.991019" stop-color="#EAF7FE" />
      </linearGradient>
      <linearGradient id="paint7_linear" x1="48.3398" y1="54.2645" x2="47.9494" y2="45.7345"
        gradientUnits="userSpaceOnUse">
        <stop offset="0.0647506" stop-color="#FEBDAB" stop-opacity="0.74" />
        <stop offset="0.225114" stop-color="#F3A9F8" stop-opacity="0.66" />
        <stop offset="0.45571" stop-color="#E0D8F0" />
        <stop offset="0.823271" stop-color="#EAF7FE" />
        <stop offset="0.991019" stop-color="#EAF7FE" />
      </linearGradient>
      <linearGradient id="paint8_linear" x1="48.3398" y1="54.2645" x2="47.9494" y2="45.7345"
        gradientUnits="userSpaceOnUse">
        <stop offset="0.0647506" stop-color="#FED290" stop-opacity="0.7" />
        <stop offset="0.614306" stop-color="#FEBDAB" />
        <stop offset="0.65625" stop-color="#FED290" stop-opacity="0.7" />
      </linearGradient>
      <linearGradient id="paint9_linear" x1="41.6838" y1="66.4916" x2="41.1951" y2="57.9717"
        gradientUnits="userSpaceOnUse">
        <stop offset="0.0647506" stop-color="#FEBDAB" stop-opacity="0.74" />
        <stop offset="0.225114" stop-color="#F3A9F8" stop-opacity="0.66" />
        <stop offset="0.45571" stop-color="#E0D8F0" />
        <stop offset="0.823271" stop-color="#EAF7FE" />
        <stop offset="0.991019" stop-color="#EAF7FE" />
      </linearGradient>
      <linearGradient id="paint10_linear" x1="41.6838" y1="66.4916" x2="41.1951" y2="57.9717"
        gradientUnits="userSpaceOnUse">
        <stop offset="0.0647506" stop-color="#FEBDAB" stop-opacity="0.74" />
        <stop offset="0.225114" stop-color="#F3A9F8" stop-opacity="0.66" />
        <stop offset="0.45571" stop-color="#E0D8F0" />
        <stop offset="0.823271" stop-color="#EAF7FE" />
        <stop offset="0.991019" stop-color="#EAF7FE" />
      </linearGradient>
      <linearGradient id="paint11_linear" x1="41.6838" y1="66.4916" x2="41.1951" y2="57.9717"
        gradientUnits="userSpaceOnUse">
        <stop offset="0.0647506" stop-color="#FED290" stop-opacity="0.7" />
        <stop offset="0.614306" stop-color="#FEBDAB" />
        <stop offset="0.65625" stop-color="#FED290" stop-opacity="0.7" />
      </linearGradient>
    </defs>
    <path
      d="M102.545 0H24.4424C18.1261 0 12.9873 5.12231 12.9873 11.4185V12.9459H11.4551C5.13871 12.9459 0 18.0682 0 24.3644V77.0451C0 83.3413 5.13871 88.4636 11.4551 88.4636H17.1194L24.0372 106.909C24.2543 107.488 24.773 107.901 25.3873 107.985C25.4633 107.995 25.539 108 25.6144 108C26.1487 108 26.6571 107.746 26.9764 107.308L40.7066 88.4636H89.5576C95.874 88.4636 101.013 83.3413 101.013 77.0451V75.5177H102.545C108.861 75.5177 114 70.3954 114 64.0992V11.4185C114 5.12231 108.861 0 102.545 0ZM97.6456 77.0451C97.6456 81.4906 94.0173 85.1073 89.5576 85.1073H39.8487C39.3096 85.1073 38.8033 85.3646 38.4865 85.7993L26.0936 102.808L19.8643 86.1978C19.6184 85.542 18.9898 85.1073 18.2874 85.1073H11.4551C6.99535 85.1073 3.36709 81.4906 3.36709 77.0451V24.3644C3.36709 19.9189 6.99535 16.3022 11.4551 16.3022H89.5576C94.0173 16.3022 97.6456 19.9189 97.6456 24.3644V77.0451ZM110.633 64.0992C110.633 68.5447 107.005 72.1614 102.545 72.1614H101.013V24.3644C101.013 18.0682 95.874 12.9459 89.5576 12.9459H16.3544V11.4185C16.3544 6.97303 19.9827 3.35634 24.4424 3.35634H102.545C107.005 3.35634 110.633 6.97303 110.633 11.4185V64.0992Z"
      fill="url(#paint0_linear)" />
    <path
      d="M102.545 0H24.4424C18.1261 0 12.9873 5.12231 12.9873 11.4185V12.9459H11.4551C5.13871 12.9459 0 18.0682 0 24.3644V77.0451C0 83.3413 5.13871 88.4636 11.4551 88.4636H17.1194L24.0372 106.909C24.2543 107.488 24.773 107.901 25.3873 107.985C25.4633 107.995 25.539 108 25.6144 108C26.1487 108 26.6571 107.746 26.9764 107.308L40.7066 88.4636H89.5576C95.874 88.4636 101.013 83.3413 101.013 77.0451V75.5177H102.545C108.861 75.5177 114 70.3954 114 64.0992V11.4185C114 5.12231 108.861 0 102.545 0ZM97.6456 77.0451C97.6456 81.4906 94.0173 85.1073 89.5576 85.1073H39.8487C39.3096 85.1073 38.8033 85.3646 38.4865 85.7993L26.0936 102.808L19.8643 86.1978C19.6184 85.542 18.9898 85.1073 18.2874 85.1073H11.4551C6.99535 85.1073 3.36709 81.4906 3.36709 77.0451V24.3644C3.36709 19.9189 6.99535 16.3022 11.4551 16.3022H89.5576C94.0173 16.3022 97.6456 19.9189 97.6456 24.3644V77.0451ZM110.633 64.0992C110.633 68.5447 107.005 72.1614 102.545 72.1614H101.013V24.3644C101.013 18.0682 95.874 12.9459 89.5576 12.9459H16.3544V11.4185C16.3544 6.97303 19.9827 3.35634 24.4424 3.35634H102.545C107.005 3.35634 110.633 6.97303 110.633 11.4185V64.0992Z"
      fill="url(#paint1_linear)" />
    <path
      d="M102.545 0H24.4424C18.1261 0 12.9873 5.12231 12.9873 11.4185V12.9459H11.4551C5.13871 12.9459 0 18.0682 0 24.3644V77.0451C0 83.3413 5.13871 88.4636 11.4551 88.4636H17.1194L24.0372 106.909C24.2543 107.488 24.773 107.901 25.3873 107.985C25.4633 107.995 25.539 108 25.6144 108C26.1487 108 26.6571 107.746 26.9764 107.308L40.7066 88.4636H89.5576C95.874 88.4636 101.013 83.3413 101.013 77.0451V75.5177H102.545C108.861 75.5177 114 70.3954 114 64.0992V11.4185C114 5.12231 108.861 0 102.545 0ZM97.6456 77.0451C97.6456 81.4906 94.0173 85.1073 89.5576 85.1073H39.8487C39.3096 85.1073 38.8033 85.3646 38.4865 85.7993L26.0936 102.808L19.8643 86.1978C19.6184 85.542 18.9898 85.1073 18.2874 85.1073H11.4551C6.99535 85.1073 3.36709 81.4906 3.36709 77.0451V24.3644C3.36709 19.9189 6.99535 16.3022 11.4551 16.3022H89.5576C94.0173 16.3022 97.6456 19.9189 97.6456 24.3644V77.0451ZM110.633 64.0992C110.633 68.5447 107.005 72.1614 102.545 72.1614H101.013V24.3644C101.013 18.0682 95.874 12.9459 89.5576 12.9459H16.3544V11.4185C16.3544 6.97303 19.9827 3.35634 24.4424 3.35634H102.545C107.005 3.35634 110.633 6.97303 110.633 11.4185V64.0992Z"
      fill="url(#paint2_linear)" />
    <path
      d="M85.1394 38.3582H17.0761C16.1463 38.3582 15.3926 39.1094 15.3926 40.0363C15.3926 40.9632 16.1463 41.7145 17.0761 41.7145H85.1394C86.0693 41.7145 86.823 40.9632 86.823 40.0363C86.823 39.1094 86.0693 38.3582 85.1394 38.3582Z"
      fill="url(#paint3_linear)" />
    <path
      d="M85.1394 38.3582H17.0761C16.1463 38.3582 15.3926 39.1094 15.3926 40.0363C15.3926 40.9632 16.1463 41.7145 17.0761 41.7145H85.1394C86.0693 41.7145 86.823 40.9632 86.823 40.0363C86.823 39.1094 86.0693 38.3582 85.1394 38.3582Z"
      fill="url(#paint4_linear)" />
    <path
      d="M85.1394 38.3582H17.0761C16.1463 38.3582 15.3926 39.1094 15.3926 40.0363C15.3926 40.9632 16.1463 41.7145 17.0761 41.7145H85.1394C86.0693 41.7145 86.823 40.9632 86.823 40.0363C86.823 39.1094 86.0693 38.3582 85.1394 38.3582Z"
      fill="url(#paint5_linear)" />
    <path
      d="M85.1394 50.5846H17.0761C16.1463 50.5846 15.3926 51.3359 15.3926 52.2628C15.3926 53.1896 16.1463 53.9409 17.0761 53.9409H85.1394C86.0693 53.9409 86.823 53.1896 86.823 52.2628C86.823 51.3359 86.0693 50.5846 85.1394 50.5846Z"
      fill="url(#paint6_linear)" />
    <path
      d="M85.1394 50.5846H17.0761C16.1463 50.5846 15.3926 51.3359 15.3926 52.2628C15.3926 53.1896 16.1463 53.9409 17.0761 53.9409H85.1394C86.0693 53.9409 86.823 53.1896 86.823 52.2628C86.823 51.3359 86.0693 50.5846 85.1394 50.5846Z"
      fill="url(#paint7_linear)" />
    <path
      d="M85.1394 50.5846H17.0761C16.1463 50.5846 15.3926 51.3359 15.3926 52.2628C15.3926 53.1896 16.1463 53.9409 17.0761 53.9409H85.1394C86.0693 53.9409 86.823 53.1896 86.823 52.2628C86.823 51.3359 86.0693 50.5846 85.1394 50.5846Z"
      fill="url(#paint8_linear)" />
    <path
      d="M70.709 62.8116H17.0761C16.1463 62.8116 15.3926 63.5629 15.3926 64.4898C15.3926 65.4167 16.1463 66.168 17.0761 66.168H70.709C71.6389 66.168 72.3926 65.4167 72.3926 64.4898C72.3926 63.5629 71.6389 62.8116 70.709 62.8116Z"
      fill="url(#paint9_linear)" />
    <path
      d="M70.709 62.8116H17.0761C16.1463 62.8116 15.3926 63.5629 15.3926 64.4898C15.3926 65.4167 16.1463 66.168 17.0761 66.168H70.709C71.6389 66.168 72.3926 65.4167 72.3926 64.4898C72.3926 63.5629 71.6389 62.8116 70.709 62.8116Z"
      fill="url(#paint10_linear)" />
    <path
      d="M70.709 62.8116H17.0761C16.1463 62.8116 15.3926 63.5629 15.3926 64.4898C15.3926 65.4167 16.1463 66.168 17.0761 66.168H70.709C71.6389 66.168 72.3926 65.4167 72.3926 64.4898C72.3926 63.5629 71.6389 62.8116 70.709 62.8116Z"
      fill="url(#paint11_linear)" />

</svg>