<svg fill="none" xmlns="http://www.w3.org/2000/svg">
<symbol id="donate-panda" viewBox="0 0 271 200">
    <path
      d="M248.892 149.901C259.741 128.92 268.566 103.191 268.566 75.7712C268.566 61.9975 264.263 46.3405 257.057 33.8895C250.756 23.0019 239.07 8.93555 219.173 3.74942C193.992 -2.81307 168.48 3.30687 147.979 8.22494C140.571 10.0021 133.573 11.6807 127.579 12.5108C114.137 14.3708 99.9352 14.0983 87.7269 13.6267H87.7189C85.8088 13.5527 83.9427 13.4743 82.1414 13.3984C74.4282 13.0728 56.6647 12.7605 56.6647 12.7605C55.6953 8.63968 53.4854 5.2636 50.7269 3.70517C49.5583 3.0559 48.2824 2.72678 46.993 2.74199C45.7037 2.7572 44.4335 3.11634 43.2759 3.79304C39.4816 5.84082 37.6623 10.3909 38.5223 15.5278C32.4429 18.6484 26.5035 24.86 22.9013 29.7446C19.8085 33.9381 17.1858 40.5594 14.6486 46.9626C12.0651 53.484 9.39416 60.2273 6.72106 62.9503C6.06672 63.6113 5.48803 64.3719 4.99984 65.2124C4.99135 65.2124 4.98286 65.2067 4.97384 65.2048C4.41488 65.0707 3.83856 65.0773 3.28185 65.2241C2.72514 65.3709 2.20033 65.6547 1.74107 66.0574C1.28181 66.46 0.898238 66.9726 0.614958 67.5622C0.331677 68.1518 0.15494 68.8055 0.0960801 69.4813C0.0372201 70.157 0.0975366 70.84 0.273162 71.4864C0.448787 72.1328 0.735843 72.7283 1.11592 73.2347C1.496 73.7411 1.96071 74.1473 2.48025 74.4273C2.99979 74.7072 3.56269 74.8546 4.13286 74.8601C4.6155 76.6518 5.26735 78.3724 6.07587 79.9887C11.455 91.0217 19.964 97.8807 27.4713 103.931C31.6099 107.267 35.5182 110.418 38.5462 113.937C40.8179 116.669 42.794 119.729 44.4283 123.046C44.4464 123.088 44.4702 123.124 44.4899 123.165C47.5636 129.293 50.0016 136.77 50.4568 143.911C51.0325 152.933 52.3946 177.293 52.8227 184.987C51.3436 185.548 49.956 186.406 48.7202 187.526C47.8009 188.354 47.1263 189.509 46.7941 190.824C46.4619 192.139 46.4893 193.546 46.8722 194.842C47.2357 196.164 47.9426 197.314 48.8908 198.126C49.8389 198.938 50.9792 199.369 52.1468 199.358H77.2892C78.0992 199.36 78.8996 199.149 79.6339 198.742C80.3683 198.335 81.0189 197.741 81.5397 197.001C87.1003 189.123 100.97 168.818 109.748 150.396C143.728 150.356 166.935 148.887 180.471 145.907C182.488 161.096 185.151 178.403 186.124 184.645C185.284 185.114 184.489 185.69 183.754 186.364C182.748 187.288 182.011 188.564 181.644 190.013C181.277 191.462 181.301 193.012 181.71 194.444C182.12 195.877 182.895 197.121 183.928 198.002C184.96 198.883 186.198 199.357 187.468 199.357H211.035C212.429 199.355 213.781 198.785 214.865 197.741C222.637 190.228 236.857 173.069 248.716 150.243C248.782 150.134 248.84 150.02 248.892 149.901V149.901ZM82.8126 77.7083C75.2109 96.6902 61.83 112.045 47.5763 118.308C45.9397 115.257 44.0309 112.426 41.8831 109.865C38.5489 105.99 34.4687 102.701 30.1486 99.2191C22.7204 93.2307 15.037 87.0387 10.2065 77.1305C7.26598 71.0997 8.36429 68.7642 9.82553 67.276C13.2775 63.7595 16.0419 56.781 18.9691 49.3916C21.3642 43.3444 23.841 37.0917 26.4902 33.5013C29.696 29.1535 35.3972 23.141 40.9142 20.5046C41.4562 20.2447 41.9435 19.8459 42.3415 19.3363C45.3574 24.5888 52.5405 23.8143 54.3434 19.0315C54.4692 18.688 54.5624 18.3288 54.6214 17.9606C62.2136 19.1371 74.311 18.7603 81.9732 19.0853C83.2721 19.1403 84.6113 19.1959 85.9675 19.2503C91.5551 37.9471 90.453 58.6297 82.8126 77.7083ZM229.329 129.824C224.878 128.839 202.785 124.858 184.256 137.798C183.374 130.662 182.773 124.727 182.773 121.826C182.773 121.072 182.522 120.348 182.074 119.814C181.626 119.281 181.019 118.981 180.385 118.981C179.752 118.981 179.145 119.281 178.697 119.814C178.249 120.348 177.998 121.072 177.998 121.826C177.998 125.195 178.719 132.137 179.742 140.282C168.181 142.856 149.116 144.288 121.789 144.628C127.229 140.692 131.567 135.042 134.735 127.693C139.147 117.465 141.097 104.14 140.374 89.1566C139.561 72.2762 128.674 49.5389 119.926 31.2714C117.9 27.0412 115.96 22.9893 114.344 19.4033C118.945 19.1789 123.571 18.7932 128.128 18.1622C134.319 17.3062 141.411 15.6043 148.92 13.7999C168.982 8.98677 193.949 2.99644 218.15 9.30541C251.4 17.9745 263.791 54.6745 263.791 75.7712C263.791 100.052 256.55 122.998 247.207 142.277C244.463 137.389 238.747 131.912 229.329 129.824V129.824Z"
      fill="black" />
    <path
      d="M32.0759 43.1281C22.4661 38.7033 16.8767 51.13 22.9925 58.4278C26.3369 62.4163 29.516 71.6584 36.7828 70.8918C48.3279 69.6766 47.2648 50.1142 32.0759 43.1281ZM27.7226 55.1516C27.1527 55.1516 26.5956 54.9475 26.1218 54.5652C25.6479 54.1829 25.2786 53.6395 25.0605 53.0037C24.8424 52.3679 24.7854 51.6683 24.8966 50.9934C25.0077 50.3185 25.2822 49.6985 25.6851 49.2119C26.0881 48.7253 26.6015 48.394 27.1605 48.2597C27.7194 48.1255 28.2987 48.1944 28.8252 48.4577C29.3518 48.7211 29.8018 49.167 30.1184 49.7392C30.435 50.3114 30.604 50.9841 30.604 51.6722C30.6038 52.5949 30.3002 53.4798 29.7599 54.1323C29.2196 54.7848 28.4867 55.1514 27.7226 55.1516V55.1516Z"
      fill="black" />
    <path
      d="M135.405 155.84C135.376 155.7 135.307 155.576 135.21 155.488C135.114 155.4 134.995 155.353 134.873 155.354C132.267 155.387 118.473 155.557 112.624 155.585C112.534 155.584 112.446 155.611 112.367 155.663C112.289 155.714 112.223 155.789 112.175 155.879C108.416 162.933 101.822 173.908 97.4663 181.053C97.3946 181.171 97.3593 181.314 97.3661 181.459C97.3729 181.604 97.4214 181.741 97.5037 181.849L103.589 189.901L103.524 190.016C103.503 190.061 103.476 190.105 103.454 190.15C102.979 191.068 102.72 192.119 102.704 193.195C102.687 194.271 102.914 195.332 103.36 196.27C103.806 197.208 104.456 197.988 105.243 198.531C106.03 199.074 106.925 199.36 107.836 199.359H133.715C134.399 199.358 135.077 199.196 135.708 198.882C136.338 198.568 136.909 198.108 137.387 197.529C137.865 196.951 138.24 196.265 138.49 195.513C138.741 194.761 138.861 193.957 138.844 193.149C138.758 188.986 138.53 182.451 137.967 175.359C137.5 168.79 136.644 162.268 135.405 155.84Z"
      fill="black" />
    <path
      d="M262.998 132.433C262.963 132.311 262.898 132.204 262.812 132.128C262.726 132.052 262.623 132.009 262.517 132.005C262.41 132.001 262.306 132.037 262.216 132.107C262.127 132.177 262.057 132.279 262.016 132.398C261.312 134.478 260.521 136.514 259.648 138.497C252.345 155.109 243.487 170.642 233.251 184.79C233.164 184.909 233.117 185.063 233.119 185.222C233.122 185.382 233.173 185.534 233.264 185.649L235.033 187.914C234.513 188.662 234.077 189.489 233.736 190.375C233.37 191.355 233.213 192.43 233.281 193.503C233.349 194.575 233.639 195.609 234.125 196.509C234.557 197.365 235.16 198.074 235.878 198.572C236.596 199.071 237.406 199.341 238.232 199.359H265.099C265.762 199.358 266.419 199.197 267.03 198.884C267.641 198.571 268.195 198.114 268.658 197.537C269.122 196.961 269.486 196.278 269.729 195.529C269.972 194.78 270.089 193.979 270.073 193.174C269.807 180.218 268.573 151.507 262.998 132.433Z"
      fill="black" />
</symbol>
</svg>