<svg width="153" height="113" viewBox="0 0 153 113" fill="none" xmlns="http://www.w3.org/2000/svg">
<path d="M140.777 84.2264C146.895 72.395 151.871 57.8866 151.871 42.4241C151.871 34.657 149.445 25.8278 145.381 18.8066C141.828 12.667 135.238 4.73484 124.018 1.81033C109.819 -1.89032 95.4317 1.56077 83.8714 4.33412C79.6936 5.33629 75.7474 6.28284 72.3673 6.75094C64.7873 7.79982 56.7788 7.64616 49.8945 7.3802H49.89C48.8128 7.33848 47.7605 7.29428 46.7447 7.2515C42.3952 7.06789 32.3782 6.89177 32.3782 6.89177C31.8316 4.56799 30.5854 2.66419 29.0298 1.78537C28.3708 1.41925 27.6513 1.23366 26.9243 1.24223C26.1972 1.25081 25.4809 1.45333 24.8281 1.83493C22.6885 2.98969 21.6626 5.55554 22.1476 8.45225C18.7193 10.212 15.37 13.7148 13.3387 16.4693C11.5947 18.834 10.1157 22.5678 8.68492 26.1786C7.2281 29.8561 5.72191 33.6587 4.21452 35.1942C3.84553 35.567 3.51921 35.9959 3.24391 36.4699C3.23912 36.4699 3.23434 36.4667 3.22925 36.4656C2.91404 36.39 2.58906 36.3937 2.27512 36.4765C1.96119 36.5592 1.66524 36.7193 1.40626 36.9464C1.14728 37.1734 0.93098 37.4625 0.771236 37.795C0.611492 38.1274 0.511828 38.4961 0.478636 38.8771C0.445445 39.2582 0.479458 39.6433 0.578494 40.0078C0.677531 40.3723 0.839405 40.7081 1.05373 40.9937C1.26806 41.2793 1.53012 41.5084 1.82309 41.6662C2.11607 41.8241 2.43349 41.9072 2.75501 41.9103C3.02718 42.9207 3.39476 43.8909 3.85069 44.8024C6.88401 51.024 11.6823 54.8918 15.9158 58.3037C18.2495 60.1847 20.4535 61.9616 22.161 63.9459C23.4421 65.4867 24.5564 67.2123 25.478 69.0826C25.4882 69.1065 25.5016 69.1268 25.5127 69.15C27.246 72.6057 28.6208 76.8219 28.8775 80.8488C29.2022 85.9363 29.9702 99.6729 30.2117 104.012C29.3776 104.328 28.5951 104.812 27.8982 105.443C27.3798 105.911 26.9994 106.562 26.8121 107.304C26.6248 108.045 26.6402 108.839 26.8561 109.569C27.0611 110.315 27.4597 110.963 27.9944 111.421C28.5291 111.879 29.1721 112.122 29.8305 112.116H44.0085C44.4653 112.117 44.9166 111.998 45.3308 111.768C45.7449 111.539 46.1117 111.204 46.4054 110.787C49.5411 106.344 57.3626 94.8941 62.3123 84.5056C81.4738 84.4831 94.5604 83.6546 102.194 81.9743C103.331 90.5396 104.833 100.299 105.381 103.819C104.908 104.083 104.46 104.408 104.045 104.789C103.478 105.31 103.062 106.029 102.855 106.846C102.648 107.663 102.662 108.537 102.892 109.345C103.123 110.153 103.561 110.854 104.143 111.351C104.725 111.848 105.423 112.115 106.14 112.115H119.429C120.215 112.114 120.977 111.793 121.589 111.204C125.971 106.968 133.991 97.2914 140.678 84.4197C140.715 84.3581 140.748 84.2936 140.777 84.2264V84.2264ZM47.1232 43.5164C42.8366 54.2205 35.291 62.8792 27.2532 66.4109C26.3303 64.6904 25.2539 63.0941 24.0427 61.6496C22.1625 59.4645 19.8616 57.6103 17.4255 55.6466C13.2367 52.2696 8.90393 48.7779 6.17999 43.1906C4.52181 39.7898 5.14116 38.4728 5.96516 37.6335C7.91178 35.6506 9.47062 31.7154 11.1213 27.5484C12.4719 24.1383 13.8686 20.6123 15.3625 18.5877C17.1703 16.1359 20.3853 12.7454 23.4964 11.2587C23.802 11.1122 24.0768 10.8873 24.3012 10.5999C26.0019 13.5619 30.0525 13.1251 31.0692 10.4281C31.1401 10.2343 31.1927 10.0318 31.226 9.82413C35.5073 10.4876 42.3291 10.2751 46.6499 10.4584C47.3823 10.4894 48.1375 10.5208 48.9023 10.5514C52.0532 21.0947 51.4318 32.7578 47.1232 43.5164ZM129.745 72.9052C127.235 72.3494 114.777 70.1044 104.328 77.4016C103.831 73.3772 103.492 70.0306 103.492 68.3949C103.492 67.9694 103.35 67.5614 103.098 67.2605C102.845 66.9596 102.503 66.7906 102.145 66.7906C101.788 66.7906 101.446 66.9596 101.193 67.2605C100.941 67.5614 100.799 67.9694 100.799 68.3949C100.799 70.2944 101.206 74.2094 101.783 78.8024C95.2632 80.2538 84.5126 81.0613 69.1024 81.2531C72.1701 79.0334 74.6164 75.8472 76.403 71.703C78.8908 65.9357 79.9904 58.4214 79.5829 49.9723C79.1239 40.4532 72.9849 27.6314 68.0519 17.3302C66.9092 14.9448 65.8153 12.6599 64.9043 10.6377C67.4987 10.5111 70.1074 10.2937 72.677 9.93785C76.1681 9.45513 80.1675 8.49538 84.4016 7.47788C95.7147 4.76372 109.794 1.38572 123.441 4.94341C142.191 9.83197 149.178 30.5274 149.178 42.4241C149.178 56.1165 145.095 69.0559 139.827 79.9272C138.28 77.171 135.056 74.0824 129.745 72.9052V72.9052Z" fill="black"/>
<path d="M18.5122 24.0179C13.0932 21.5228 9.94126 28.5303 13.39 32.6456C15.2759 34.8947 17.0687 40.1064 21.1665 39.6742C27.6769 38.9889 27.0774 27.9575 18.5122 24.0179ZM16.0573 30.7981C15.736 30.7981 15.4218 30.683 15.1546 30.4674C14.8874 30.2518 14.6792 29.9454 14.5562 29.5869C14.4332 29.2284 14.401 28.8339 14.4637 28.4533C14.5264 28.0727 14.6812 27.7231 14.9084 27.4487C15.1356 27.1743 15.4252 26.9874 15.7404 26.9117C16.0555 26.836 16.3822 26.8749 16.6791 27.0234C16.976 27.1719 17.2298 27.4233 17.4084 27.746C17.5869 28.0687 17.6822 28.448 17.6822 28.8361C17.6821 29.3564 17.5109 29.8554 17.2062 30.2233C16.9015 30.5913 16.4883 30.798 16.0573 30.7981V30.7981Z" fill="black"/>
<path d="M76.7805 87.5768C76.7639 87.4979 76.7253 87.4279 76.6709 87.3782C76.6164 87.3284 76.5494 87.3018 76.4805 87.3028C75.0111 87.3211 67.2324 87.4171 63.9344 87.4326C63.8836 87.4324 63.8337 87.4476 63.7894 87.4767C63.7451 87.5058 63.7078 87.5478 63.6812 87.5988C61.5612 91.5764 57.8426 97.7656 55.3866 101.795C55.3462 101.861 55.3262 101.942 55.3301 102.023C55.3339 102.105 55.3613 102.183 55.4077 102.243L58.8395 106.784L58.8028 106.849C58.7906 106.874 58.7754 106.899 58.7631 106.924C58.4954 107.442 58.3494 108.035 58.34 108.641C58.3307 109.248 58.4585 109.847 58.7102 110.375C58.9618 110.904 59.3283 111.345 59.7719 111.651C60.2155 111.957 60.7202 112.118 61.2341 112.117H75.8275C76.2135 112.117 76.5956 112.026 76.9512 111.848C77.3068 111.671 77.6289 111.412 77.8984 111.086C78.1679 110.759 78.3794 110.373 78.5205 109.949C78.6616 109.524 78.7294 109.071 78.7199 108.616C78.6711 106.268 78.5428 102.583 78.2251 98.5834C77.9621 94.8792 77.4794 91.2013 76.7805 87.5768Z" fill="black"/>
<path d="M148.731 74.3779C148.711 74.3091 148.675 74.2492 148.626 74.2062C148.578 74.1632 148.52 74.139 148.46 74.1369C148.4 74.1348 148.341 74.1548 148.29 74.1944C148.24 74.234 148.201 74.2912 148.178 74.3585C147.78 75.5314 147.335 76.6793 146.842 77.7977C142.724 87.1652 137.729 95.9248 131.957 103.903C131.908 103.97 131.881 104.057 131.882 104.147C131.884 104.236 131.913 104.322 131.964 104.387L132.962 105.665C132.669 106.086 132.423 106.553 132.23 107.052C132.024 107.605 131.935 108.211 131.974 108.816C132.012 109.421 132.176 110.004 132.449 110.511C132.693 110.994 133.033 111.394 133.438 111.675C133.843 111.956 134.299 112.108 134.766 112.118H149.916C150.29 112.118 150.66 112.027 151.005 111.851C151.35 111.674 151.662 111.416 151.923 111.091C152.185 110.766 152.39 110.381 152.527 109.959C152.664 109.536 152.73 109.085 152.721 108.631C152.571 101.325 151.875 85.1339 148.731 74.3779Z" fill="black"/>
</svg>
