<svg width="66" height="42" viewBox="0 0 66 42" fill="none" xmlns="http://www.w3.org/2000/svg">
<mask id="path-1-inside-1" fill="white">
<path d="M6.69952 12.6024V16.8361H5.27344V6.0216H9.26202C10.4455 6.0216 11.3714 6.32365 12.0399 6.92776C12.7134 7.53186 13.0501 8.33156 13.0501 9.32685C13.0501 10.3766 12.7208 11.1862 12.0622 11.7557C11.4086 12.3201 10.4702 12.6024 9.24717 12.6024H6.69952ZM6.69952 11.4363H9.26202C10.0246 11.4363 10.6089 11.258 11.0149 10.9015C11.421 10.54 11.624 10.0201 11.624 9.34171C11.624 8.69799 11.421 8.18301 11.0149 7.79678C10.6089 7.41055 10.0518 7.21 9.34373 7.19515H6.69952V11.4363Z"/>
<path d="M17.8854 16.9846C16.796 16.9846 15.9097 16.6281 15.2263 15.9151C14.543 15.1971 14.2013 14.2389 14.2013 13.0406V12.7881C14.2013 11.9909 14.3524 11.2803 14.6544 10.6564C14.9614 10.0275 15.3873 9.5373 15.932 9.18573C16.4816 8.82921 17.0758 8.65095 17.7146 8.65095C18.7594 8.65095 19.5714 8.99509 20.1508 9.68337C20.7301 10.3717 21.0198 11.357 21.0198 12.6395V13.2115H15.5754C15.5952 14.0037 15.8255 14.645 16.2662 15.1352C16.7118 15.6205 17.2763 15.8631 17.9597 15.8631C18.4449 15.8631 18.8559 15.764 19.1926 15.566C19.5294 15.3679 19.824 15.1055 20.0765 14.7787L20.9158 15.4323C20.2424 16.4672 19.2323 16.9846 17.8854 16.9846ZM17.7146 9.77993C17.16 9.77993 16.6945 9.98295 16.3182 10.389C15.9419 10.7901 15.7091 11.3546 15.62 12.0825H19.6457V11.9785C19.6061 11.2803 19.4179 10.7406 19.0812 10.3593C18.7445 9.97305 18.289 9.77993 17.7146 9.77993Z"/>
<path d="M24.481 6.85348V8.7995H25.9814V9.86163H24.481V14.8455C24.481 15.1674 24.5479 15.41 24.6816 15.5734C24.8153 15.7319 25.0431 15.8111 25.3649 15.8111C25.5234 15.8111 25.7413 15.7814 26.0185 15.722V16.8361C25.6571 16.9351 25.3055 16.9846 24.9638 16.9846C24.3498 16.9846 23.8868 16.799 23.5749 16.4276C23.2629 16.0562 23.107 15.5288 23.107 14.8455V9.86163H21.6437V8.7995H23.107V6.85348H24.481Z"/>
<path d="M30.995 12.0156C29.7719 11.664 28.8806 11.2333 28.3211 10.7232C27.7665 10.2083 27.4892 9.57444 27.4892 8.82178C27.4892 7.97009 27.8284 7.26695 28.5068 6.71236C29.1901 6.15282 30.0765 5.87305 31.1658 5.87305C31.9086 5.87305 32.5696 6.01665 33.149 6.30384C33.7333 6.59104 34.1839 6.98718 34.5008 7.49225C34.8227 7.99732 34.9836 8.54944 34.9836 9.14859H33.5501C33.5501 8.49497 33.3421 7.98247 32.9262 7.61109C32.5102 7.23476 31.9234 7.0466 31.1658 7.0466C30.4627 7.0466 29.9131 7.20258 29.5169 7.51453C29.1257 7.82154 28.9301 8.24986 28.9301 8.7995C28.9301 9.2402 29.1158 9.61405 29.4872 9.92105C29.8635 10.2231 30.4998 10.5004 31.3961 10.7529C32.2973 11.0055 33.0004 11.2852 33.5055 11.5922C34.0155 11.8943 34.3919 12.2483 34.6345 12.6544C34.8821 13.0604 35.0059 13.5383 35.0059 14.0879C35.0059 14.9644 34.6642 15.6675 33.9809 16.1973C33.2975 16.7222 32.3839 16.9846 31.2401 16.9846C30.4974 16.9846 29.8041 16.8435 29.1604 16.5613C28.5167 16.2741 28.019 15.8829 27.6675 15.3877C27.3208 14.8926 27.1475 14.3305 27.1475 13.7017H28.581C28.581 14.3553 28.8212 14.8727 29.3015 15.254C29.7868 15.6304 30.433 15.8185 31.2401 15.8185C31.9928 15.8185 32.5696 15.665 32.9707 15.358C33.3718 15.051 33.5724 14.6326 33.5724 14.1028C33.5724 13.5729 33.3867 13.1644 33.0153 12.8772C32.6439 12.5851 31.9705 12.2979 30.995 12.0156Z"/>
<path d="M38.4894 6.85348V8.7995H39.9897V9.86163H38.4894V14.8455C38.4894 15.1674 38.5562 15.41 38.6899 15.5734C38.8236 15.7319 39.0514 15.8111 39.3733 15.8111C39.5317 15.8111 39.7496 15.7814 40.0269 15.722V16.8361C39.6654 16.9351 39.3138 16.9846 38.9722 16.9846C38.3582 16.9846 37.8952 16.799 37.5832 16.4276C37.2713 16.0562 37.1153 15.5288 37.1153 14.8455V9.86163H35.6521V8.7995H37.1153V6.85348H38.4894Z"/>
<path d="M41.089 12.7435C41.089 11.9562 41.2425 11.2481 41.5495 10.6192C41.8615 9.99038 42.2923 9.50511 42.8419 9.16345C43.3965 8.82178 44.0278 8.65095 44.7359 8.65095C45.8303 8.65095 46.7141 9.02975 47.3876 9.78736C48.066 10.545 48.4051 11.5526 48.4051 12.8104V12.9069C48.4051 13.6893 48.2541 14.3924 47.9521 15.0163C47.655 15.6353 47.2266 16.1181 46.6671 16.4647C46.1125 16.8113 45.4737 16.9846 44.7508 16.9846C43.6614 16.9846 42.7775 16.6058 42.0992 15.8482C41.4257 15.0906 41.089 14.0879 41.089 12.8401V12.7435ZM42.4705 12.9069C42.4705 13.7982 42.676 14.5137 43.087 15.0535C43.503 15.5932 44.0576 15.8631 44.7508 15.8631C45.449 15.8631 46.0036 15.5907 46.4146 15.0461C46.8256 14.4964 47.031 13.7289 47.031 12.7435C47.031 11.8621 46.8206 11.1491 46.3997 10.6044C45.9838 10.0548 45.4292 9.77993 44.7359 9.77993C44.0576 9.77993 43.5104 10.0498 43.0945 10.5895C42.6785 11.1293 42.4705 11.9017 42.4705 12.9069Z"/>
<path d="M54.0129 10.0325C53.805 9.99781 53.5797 9.98047 53.337 9.98047C52.4358 9.98047 51.8243 10.3642 51.5024 11.1317V16.8361H50.1283V8.7995H51.4653L51.4876 9.72794C51.9382 9.00994 52.5769 8.65095 53.4039 8.65095C53.6713 8.65095 53.8743 8.68561 54.0129 8.75493V10.0325Z"/>
<path d="M58.0461 14.8232L59.9178 8.7995H61.3885L58.1575 18.0765C57.6574 19.4134 56.8626 20.0819 55.7733 20.0819L55.5133 20.0596L55.0008 19.9631V18.849L55.3722 18.8787C55.8376 18.8787 56.1991 18.7846 56.4566 18.5964C56.719 18.4083 56.9344 18.0641 57.1028 17.564L57.4073 16.747L54.5403 8.7995H56.0406L58.0461 14.8232Z"/>
<path d="M13.0129 30.7435C13.0129 29.9562 13.1664 29.2481 13.4734 28.6192C13.7854 27.9904 14.2162 27.5051 14.7658 27.1634C15.3204 26.8218 15.9518 26.6509 16.6599 26.6509C17.7542 26.6509 18.6381 27.0298 19.3115 27.7874C19.9899 28.545 20.3291 29.5526 20.3291 30.8104V30.9069C20.3291 31.6893 20.178 32.3924 19.876 33.0163C19.5789 33.6353 19.1506 34.1181 18.591 34.4647C18.0364 34.8113 17.3977 34.9846 16.6747 34.9846C15.5853 34.9846 14.7015 34.6058 14.0231 33.8482C13.3496 33.0906 13.0129 32.0879 13.0129 30.8401V30.7435ZM14.3945 30.9069C14.3945 31.7982 14.5999 32.5137 15.0109 33.0535C15.4269 33.5932 15.9815 33.8631 16.6747 33.8631C17.3729 33.8631 17.9275 33.5907 18.3385 33.0461C18.7495 32.4964 18.955 31.7289 18.955 30.7435C18.955 29.8621 18.7445 29.1491 18.3236 28.6044C17.9077 28.0547 17.3531 27.7799 16.6599 27.7799C15.9815 27.7799 15.4343 28.0498 15.0184 28.5895C14.6024 29.1293 14.3945 29.9017 14.3945 30.9069Z"/>
<path d="M23.3521 26.7995L23.3966 27.8096C24.0106 27.0372 24.8128 26.6509 25.8032 26.6509C27.5016 26.6509 28.3582 27.6091 28.3731 29.5254V34.8361H26.999V29.518C26.994 28.9386 26.8603 28.5103 26.5979 28.233C26.3404 27.9557 25.9368 27.8171 25.3872 27.8171C24.9416 27.8171 24.5504 27.9359 24.2137 28.1736C23.8769 28.4113 23.6145 28.7232 23.4263 29.1095V34.8361H22.0522V26.7995H23.3521Z"/>
<path d="M31.9383 34.8361H30.5642V23.4274H31.9383V34.8361Z"/>
<path d="M35.6372 34.8361H34.2631V26.7995H35.6372V34.8361ZM34.1517 24.6678C34.1517 24.445 34.2185 24.2568 34.3522 24.1033C34.4909 23.9498 34.6939 23.873 34.9613 23.873C35.2287 23.873 35.4317 23.9498 35.5704 24.1033C35.709 24.2568 35.7783 24.445 35.7783 24.6678C35.7783 24.8906 35.709 25.0763 35.5704 25.2249C35.4317 25.3734 35.2287 25.4477 34.9613 25.4477C34.6939 25.4477 34.4909 25.3734 34.3522 25.2249C34.2185 25.0763 34.1517 24.8906 34.1517 24.6678Z"/>
<path d="M39.143 26.7995L39.1876 27.8096C39.8016 27.0372 40.6038 26.6509 41.5941 26.6509C43.2925 26.6509 44.1492 27.6091 44.164 29.5254V34.8361H42.7899V29.518C42.785 28.9386 42.6513 28.5103 42.3888 28.233C42.1313 27.9557 41.7278 27.8171 41.1781 27.8171C40.7325 27.8171 40.3413 27.9359 40.0046 28.1736C39.6679 28.4113 39.4054 28.7232 39.2173 29.1095V34.8361H37.8432V26.7995H39.143Z"/>
<path d="M49.5713 34.9846C48.4819 34.9846 47.5955 34.6281 46.9122 33.9151C46.2289 33.1971 45.8872 32.2389 45.8872 31.0406V30.7881C45.8872 29.9909 46.0382 29.2803 46.3403 28.6564C46.6473 28.0275 47.0731 27.5373 47.6178 27.1857C48.1675 26.8292 48.7617 26.6509 49.4004 26.6509C50.4452 26.6509 51.2573 26.9951 51.8367 27.6834C52.416 28.3717 52.7057 29.357 52.7057 30.6395V31.2115H47.2613C47.2811 32.0037 47.5114 32.645 47.9521 33.1352C48.3977 33.6205 48.9622 33.8631 49.6455 33.8631C50.1308 33.8631 50.5418 33.7641 50.8785 33.566C51.2152 33.3679 51.5099 33.1055 51.7624 32.7787L52.6017 33.4323C51.9283 34.4672 50.9181 34.9846 49.5713 34.9846ZM49.4004 27.7799C48.8458 27.7799 48.3804 27.9829 48.0041 28.389C47.6277 28.7901 47.395 29.3546 47.3059 30.0825H51.3316V29.9785C51.292 29.2803 51.1038 28.7406 50.7671 28.3593C50.4304 27.973 49.9748 27.7799 49.4004 27.7799Z"/>
</mask>
<path d="M6.69952 12.6024V16.8361H5.27344V6.0216H9.26202C10.4455 6.0216 11.3714 6.32365 12.0399 6.92776C12.7134 7.53186 13.0501 8.33156 13.0501 9.32685C13.0501 10.3766 12.7208 11.1862 12.0622 11.7557C11.4086 12.3201 10.4702 12.6024 9.24717 12.6024H6.69952ZM6.69952 11.4363H9.26202C10.0246 11.4363 10.6089 11.258 11.0149 10.9015C11.421 10.54 11.624 10.0201 11.624 9.34171C11.624 8.69799 11.421 8.18301 11.0149 7.79678C10.6089 7.41055 10.0518 7.21 9.34373 7.19515H6.69952V11.4363Z" fill="white"/>
<path d="M17.8854 16.9846C16.796 16.9846 15.9097 16.6281 15.2263 15.9151C14.543 15.1971 14.2013 14.2389 14.2013 13.0406V12.7881C14.2013 11.9909 14.3524 11.2803 14.6544 10.6564C14.9614 10.0275 15.3873 9.5373 15.932 9.18573C16.4816 8.82921 17.0758 8.65095 17.7146 8.65095C18.7594 8.65095 19.5714 8.99509 20.1508 9.68337C20.7301 10.3717 21.0198 11.357 21.0198 12.6395V13.2115H15.5754C15.5952 14.0037 15.8255 14.645 16.2662 15.1352C16.7118 15.6205 17.2763 15.8631 17.9597 15.8631C18.4449 15.8631 18.8559 15.764 19.1926 15.566C19.5294 15.3679 19.824 15.1055 20.0765 14.7787L20.9158 15.4323C20.2424 16.4672 19.2323 16.9846 17.8854 16.9846ZM17.7146 9.77993C17.16 9.77993 16.6945 9.98295 16.3182 10.389C15.9419 10.7901 15.7091 11.3546 15.62 12.0825H19.6457V11.9785C19.6061 11.2803 19.4179 10.7406 19.0812 10.3593C18.7445 9.97305 18.289 9.77993 17.7146 9.77993Z" fill="white"/>
<path d="M24.481 6.85348V8.7995H25.9814V9.86163H24.481V14.8455C24.481 15.1674 24.5479 15.41 24.6816 15.5734C24.8153 15.7319 25.0431 15.8111 25.3649 15.8111C25.5234 15.8111 25.7413 15.7814 26.0185 15.722V16.8361C25.6571 16.9351 25.3055 16.9846 24.9638 16.9846C24.3498 16.9846 23.8868 16.799 23.5749 16.4276C23.2629 16.0562 23.107 15.5288 23.107 14.8455V9.86163H21.6437V8.7995H23.107V6.85348H24.481Z" fill="white"/>
<path d="M30.995 12.0156C29.7719 11.664 28.8806 11.2333 28.3211 10.7232C27.7665 10.2083 27.4892 9.57444 27.4892 8.82178C27.4892 7.97009 27.8284 7.26695 28.5068 6.71236C29.1901 6.15282 30.0765 5.87305 31.1658 5.87305C31.9086 5.87305 32.5696 6.01665 33.149 6.30384C33.7333 6.59104 34.1839 6.98718 34.5008 7.49225C34.8227 7.99732 34.9836 8.54944 34.9836 9.14859H33.5501C33.5501 8.49497 33.3421 7.98247 32.9262 7.61109C32.5102 7.23476 31.9234 7.0466 31.1658 7.0466C30.4627 7.0466 29.9131 7.20258 29.5169 7.51453C29.1257 7.82154 28.9301 8.24986 28.9301 8.7995C28.9301 9.2402 29.1158 9.61405 29.4872 9.92105C29.8635 10.2231 30.4998 10.5004 31.3961 10.7529C32.2973 11.0055 33.0004 11.2852 33.5055 11.5922C34.0155 11.8943 34.3919 12.2483 34.6345 12.6544C34.8821 13.0604 35.0059 13.5383 35.0059 14.0879C35.0059 14.9644 34.6642 15.6675 33.9809 16.1973C33.2975 16.7222 32.3839 16.9846 31.2401 16.9846C30.4974 16.9846 29.8041 16.8435 29.1604 16.5613C28.5167 16.2741 28.019 15.8829 27.6675 15.3877C27.3208 14.8926 27.1475 14.3305 27.1475 13.7017H28.581C28.581 14.3553 28.8212 14.8727 29.3015 15.254C29.7868 15.6304 30.433 15.8185 31.2401 15.8185C31.9928 15.8185 32.5696 15.665 32.9707 15.358C33.3718 15.051 33.5724 14.6326 33.5724 14.1028C33.5724 13.5729 33.3867 13.1644 33.0153 12.8772C32.6439 12.5851 31.9705 12.2979 30.995 12.0156Z" fill="white"/>
<path d="M38.4894 6.85348V8.7995H39.9897V9.86163H38.4894V14.8455C38.4894 15.1674 38.5562 15.41 38.6899 15.5734C38.8236 15.7319 39.0514 15.8111 39.3733 15.8111C39.5317 15.8111 39.7496 15.7814 40.0269 15.722V16.8361C39.6654 16.9351 39.3138 16.9846 38.9722 16.9846C38.3582 16.9846 37.8952 16.799 37.5832 16.4276C37.2713 16.0562 37.1153 15.5288 37.1153 14.8455V9.86163H35.6521V8.7995H37.1153V6.85348H38.4894Z" fill="white"/>
<path d="M41.089 12.7435C41.089 11.9562 41.2425 11.2481 41.5495 10.6192C41.8615 9.99038 42.2923 9.50511 42.8419 9.16345C43.3965 8.82178 44.0278 8.65095 44.7359 8.65095C45.8303 8.65095 46.7141 9.02975 47.3876 9.78736C48.066 10.545 48.4051 11.5526 48.4051 12.8104V12.9069C48.4051 13.6893 48.2541 14.3924 47.9521 15.0163C47.655 15.6353 47.2266 16.1181 46.6671 16.4647C46.1125 16.8113 45.4737 16.9846 44.7508 16.9846C43.6614 16.9846 42.7775 16.6058 42.0992 15.8482C41.4257 15.0906 41.089 14.0879 41.089 12.8401V12.7435ZM42.4705 12.9069C42.4705 13.7982 42.676 14.5137 43.087 15.0535C43.503 15.5932 44.0576 15.8631 44.7508 15.8631C45.449 15.8631 46.0036 15.5907 46.4146 15.0461C46.8256 14.4964 47.031 13.7289 47.031 12.7435C47.031 11.8621 46.8206 11.1491 46.3997 10.6044C45.9838 10.0548 45.4292 9.77993 44.7359 9.77993C44.0576 9.77993 43.5104 10.0498 43.0945 10.5895C42.6785 11.1293 42.4705 11.9017 42.4705 12.9069Z" fill="white"/>
<path d="M54.0129 10.0325C53.805 9.99781 53.5797 9.98047 53.337 9.98047C52.4358 9.98047 51.8243 10.3642 51.5024 11.1317V16.8361H50.1283V8.7995H51.4653L51.4876 9.72794C51.9382 9.00994 52.5769 8.65095 53.4039 8.65095C53.6713 8.65095 53.8743 8.68561 54.0129 8.75493V10.0325Z" fill="white"/>
<path d="M58.0461 14.8232L59.9178 8.7995H61.3885L58.1575 18.0765C57.6574 19.4134 56.8626 20.0819 55.7733 20.0819L55.5133 20.0596L55.0008 19.9631V18.849L55.3722 18.8787C55.8376 18.8787 56.1991 18.7846 56.4566 18.5964C56.719 18.4083 56.9344 18.0641 57.1028 17.564L57.4073 16.747L54.5403 8.7995H56.0406L58.0461 14.8232Z" fill="white"/>
<path d="M13.0129 30.7435C13.0129 29.9562 13.1664 29.2481 13.4734 28.6192C13.7854 27.9904 14.2162 27.5051 14.7658 27.1634C15.3204 26.8218 15.9518 26.6509 16.6599 26.6509C17.7542 26.6509 18.6381 27.0298 19.3115 27.7874C19.9899 28.545 20.3291 29.5526 20.3291 30.8104V30.9069C20.3291 31.6893 20.178 32.3924 19.876 33.0163C19.5789 33.6353 19.1506 34.1181 18.591 34.4647C18.0364 34.8113 17.3977 34.9846 16.6747 34.9846C15.5853 34.9846 14.7015 34.6058 14.0231 33.8482C13.3496 33.0906 13.0129 32.0879 13.0129 30.8401V30.7435ZM14.3945 30.9069C14.3945 31.7982 14.5999 32.5137 15.0109 33.0535C15.4269 33.5932 15.9815 33.8631 16.6747 33.8631C17.3729 33.8631 17.9275 33.5907 18.3385 33.0461C18.7495 32.4964 18.955 31.7289 18.955 30.7435C18.955 29.8621 18.7445 29.1491 18.3236 28.6044C17.9077 28.0547 17.3531 27.7799 16.6599 27.7799C15.9815 27.7799 15.4343 28.0498 15.0184 28.5895C14.6024 29.1293 14.3945 29.9017 14.3945 30.9069Z" fill="white"/>
<path d="M23.3521 26.7995L23.3966 27.8096C24.0106 27.0372 24.8128 26.6509 25.8032 26.6509C27.5016 26.6509 28.3582 27.6091 28.3731 29.5254V34.8361H26.999V29.518C26.994 28.9386 26.8603 28.5103 26.5979 28.233C26.3404 27.9557 25.9368 27.8171 25.3872 27.8171C24.9416 27.8171 24.5504 27.9359 24.2137 28.1736C23.8769 28.4113 23.6145 28.7232 23.4263 29.1095V34.8361H22.0522V26.7995H23.3521Z" fill="white"/>
<path d="M31.9383 34.8361H30.5642V23.4274H31.9383V34.8361Z" fill="white"/>
<path d="M35.6372 34.8361H34.2631V26.7995H35.6372V34.8361ZM34.1517 24.6678C34.1517 24.445 34.2185 24.2568 34.3522 24.1033C34.4909 23.9498 34.6939 23.873 34.9613 23.873C35.2287 23.873 35.4317 23.9498 35.5704 24.1033C35.709 24.2568 35.7783 24.445 35.7783 24.6678C35.7783 24.8906 35.709 25.0763 35.5704 25.2249C35.4317 25.3734 35.2287 25.4477 34.9613 25.4477C34.6939 25.4477 34.4909 25.3734 34.3522 25.2249C34.2185 25.0763 34.1517 24.8906 34.1517 24.6678Z" fill="white"/>
<path d="M39.143 26.7995L39.1876 27.8096C39.8016 27.0372 40.6038 26.6509 41.5941 26.6509C43.2925 26.6509 44.1492 27.6091 44.164 29.5254V34.8361H42.7899V29.518C42.785 28.9386 42.6513 28.5103 42.3888 28.233C42.1313 27.9557 41.7278 27.8171 41.1781 27.8171C40.7325 27.8171 40.3413 27.9359 40.0046 28.1736C39.6679 28.4113 39.4054 28.7232 39.2173 29.1095V34.8361H37.8432V26.7995H39.143Z" fill="white"/>
<path d="M49.5713 34.9846C48.4819 34.9846 47.5955 34.6281 46.9122 33.9151C46.2289 33.1971 45.8872 32.2389 45.8872 31.0406V30.7881C45.8872 29.9909 46.0382 29.2803 46.3403 28.6564C46.6473 28.0275 47.0731 27.5373 47.6178 27.1857C48.1675 26.8292 48.7617 26.6509 49.4004 26.6509C50.4452 26.6509 51.2573 26.9951 51.8367 27.6834C52.416 28.3717 52.7057 29.357 52.7057 30.6395V31.2115H47.2613C47.2811 32.0037 47.5114 32.645 47.9521 33.1352C48.3977 33.6205 48.9622 33.8631 49.6455 33.8631C50.1308 33.8631 50.5418 33.7641 50.8785 33.566C51.2152 33.3679 51.5099 33.1055 51.7624 32.7787L52.6017 33.4323C51.9283 34.4672 50.9181 34.9846 49.5713 34.9846ZM49.4004 27.7799C48.8458 27.7799 48.3804 27.9829 48.0041 28.389C47.6277 28.7901 47.395 29.3546 47.3059 30.0825H51.3316V29.9785C51.292 29.2803 51.1038 28.7406 50.7671 28.3593C50.4304 27.973 49.9748 27.7799 49.4004 27.7799Z" fill="white"/>
<path d="M6.69952 12.6024V16.8361H5.27344V6.0216H9.26202C10.4455 6.0216 11.3714 6.32365 12.0399 6.92776C12.7134 7.53186 13.0501 8.33156 13.0501 9.32685C13.0501 10.3766 12.7208 11.1862 12.0622 11.7557C11.4086 12.3201 10.4702 12.6024 9.24717 12.6024H6.69952ZM6.69952 11.4363H9.26202C10.0246 11.4363 10.6089 11.258 11.0149 10.9015C11.421 10.54 11.624 10.0201 11.624 9.34171C11.624 8.69799 11.421 8.18301 11.0149 7.79678C10.6089 7.41055 10.0518 7.21 9.34373 7.19515H6.69952V11.4363Z" stroke="#FE9013" stroke-width="1.90145" mask="url(#path-1-inside-1)"/>
<path d="M17.8854 16.9846C16.796 16.9846 15.9097 16.6281 15.2263 15.9151C14.543 15.1971 14.2013 14.2389 14.2013 13.0406V12.7881C14.2013 11.9909 14.3524 11.2803 14.6544 10.6564C14.9614 10.0275 15.3873 9.5373 15.932 9.18573C16.4816 8.82921 17.0758 8.65095 17.7146 8.65095C18.7594 8.65095 19.5714 8.99509 20.1508 9.68337C20.7301 10.3717 21.0198 11.357 21.0198 12.6395V13.2115H15.5754C15.5952 14.0037 15.8255 14.645 16.2662 15.1352C16.7118 15.6205 17.2763 15.8631 17.9597 15.8631C18.4449 15.8631 18.8559 15.764 19.1926 15.566C19.5294 15.3679 19.824 15.1055 20.0765 14.7787L20.9158 15.4323C20.2424 16.4672 19.2323 16.9846 17.8854 16.9846ZM17.7146 9.77993C17.16 9.77993 16.6945 9.98295 16.3182 10.389C15.9419 10.7901 15.7091 11.3546 15.62 12.0825H19.6457V11.9785C19.6061 11.2803 19.4179 10.7406 19.0812 10.3593C18.7445 9.97305 18.289 9.77993 17.7146 9.77993Z" stroke="#FE9013" stroke-width="1.90145" mask="url(#path-1-inside-1)"/>
<path d="M24.481 6.85348V8.7995H25.9814V9.86163H24.481V14.8455C24.481 15.1674 24.5479 15.41 24.6816 15.5734C24.8153 15.7319 25.0431 15.8111 25.3649 15.8111C25.5234 15.8111 25.7413 15.7814 26.0185 15.722V16.8361C25.6571 16.9351 25.3055 16.9846 24.9638 16.9846C24.3498 16.9846 23.8868 16.799 23.5749 16.4276C23.2629 16.0562 23.107 15.5288 23.107 14.8455V9.86163H21.6437V8.7995H23.107V6.85348H24.481Z" stroke="#FE9013" stroke-width="1.90145" mask="url(#path-1-inside-1)"/>
<path d="M30.995 12.0156C29.7719 11.664 28.8806 11.2333 28.3211 10.7232C27.7665 10.2083 27.4892 9.57444 27.4892 8.82178C27.4892 7.97009 27.8284 7.26695 28.5068 6.71236C29.1901 6.15282 30.0765 5.87305 31.1658 5.87305C31.9086 5.87305 32.5696 6.01665 33.149 6.30384C33.7333 6.59104 34.1839 6.98718 34.5008 7.49225C34.8227 7.99732 34.9836 8.54944 34.9836 9.14859H33.5501C33.5501 8.49497 33.3421 7.98247 32.9262 7.61109C32.5102 7.23476 31.9234 7.0466 31.1658 7.0466C30.4627 7.0466 29.9131 7.20258 29.5169 7.51453C29.1257 7.82154 28.9301 8.24986 28.9301 8.7995C28.9301 9.2402 29.1158 9.61405 29.4872 9.92105C29.8635 10.2231 30.4998 10.5004 31.3961 10.7529C32.2973 11.0055 33.0004 11.2852 33.5055 11.5922C34.0155 11.8943 34.3919 12.2483 34.6345 12.6544C34.8821 13.0604 35.0059 13.5383 35.0059 14.0879C35.0059 14.9644 34.6642 15.6675 33.9809 16.1973C33.2975 16.7222 32.3839 16.9846 31.2401 16.9846C30.4974 16.9846 29.8041 16.8435 29.1604 16.5613C28.5167 16.2741 28.019 15.8829 27.6675 15.3877C27.3208 14.8926 27.1475 14.3305 27.1475 13.7017H28.581C28.581 14.3553 28.8212 14.8727 29.3015 15.254C29.7868 15.6304 30.433 15.8185 31.2401 15.8185C31.9928 15.8185 32.5696 15.665 32.9707 15.358C33.3718 15.051 33.5724 14.6326 33.5724 14.1028C33.5724 13.5729 33.3867 13.1644 33.0153 12.8772C32.6439 12.5851 31.9705 12.2979 30.995 12.0156Z" stroke="#FE9013" stroke-width="1.90145" mask="url(#path-1-inside-1)"/>
<path d="M38.4894 6.85348V8.7995H39.9897V9.86163H38.4894V14.8455C38.4894 15.1674 38.5562 15.41 38.6899 15.5734C38.8236 15.7319 39.0514 15.8111 39.3733 15.8111C39.5317 15.8111 39.7496 15.7814 40.0269 15.722V16.8361C39.6654 16.9351 39.3138 16.9846 38.9722 16.9846C38.3582 16.9846 37.8952 16.799 37.5832 16.4276C37.2713 16.0562 37.1153 15.5288 37.1153 14.8455V9.86163H35.6521V8.7995H37.1153V6.85348H38.4894Z" stroke="#FE9013" stroke-width="1.90145" mask="url(#path-1-inside-1)"/>
<path d="M41.089 12.7435C41.089 11.9562 41.2425 11.2481 41.5495 10.6192C41.8615 9.99038 42.2923 9.50511 42.8419 9.16345C43.3965 8.82178 44.0278 8.65095 44.7359 8.65095C45.8303 8.65095 46.7141 9.02975 47.3876 9.78736C48.066 10.545 48.4051 11.5526 48.4051 12.8104V12.9069C48.4051 13.6893 48.2541 14.3924 47.9521 15.0163C47.655 15.6353 47.2266 16.1181 46.6671 16.4647C46.1125 16.8113 45.4737 16.9846 44.7508 16.9846C43.6614 16.9846 42.7775 16.6058 42.0992 15.8482C41.4257 15.0906 41.089 14.0879 41.089 12.8401V12.7435ZM42.4705 12.9069C42.4705 13.7982 42.676 14.5137 43.087 15.0535C43.503 15.5932 44.0576 15.8631 44.7508 15.8631C45.449 15.8631 46.0036 15.5907 46.4146 15.0461C46.8256 14.4964 47.031 13.7289 47.031 12.7435C47.031 11.8621 46.8206 11.1491 46.3997 10.6044C45.9838 10.0548 45.4292 9.77993 44.7359 9.77993C44.0576 9.77993 43.5104 10.0498 43.0945 10.5895C42.6785 11.1293 42.4705 11.9017 42.4705 12.9069Z" stroke="#FE9013" stroke-width="1.90145" mask="url(#path-1-inside-1)"/>
<path d="M54.0129 10.0325C53.805 9.99781 53.5797 9.98047 53.337 9.98047C52.4358 9.98047 51.8243 10.3642 51.5024 11.1317V16.8361H50.1283V8.7995H51.4653L51.4876 9.72794C51.9382 9.00994 52.5769 8.65095 53.4039 8.65095C53.6713 8.65095 53.8743 8.68561 54.0129 8.75493V10.0325Z" stroke="#FE9013" stroke-width="1.90145" mask="url(#path-1-inside-1)"/>
<path d="M58.0461 14.8232L59.9178 8.7995H61.3885L58.1575 18.0765C57.6574 19.4134 56.8626 20.0819 55.7733 20.0819L55.5133 20.0596L55.0008 19.9631V18.849L55.3722 18.8787C55.8376 18.8787 56.1991 18.7846 56.4566 18.5964C56.719 18.4083 56.9344 18.0641 57.1028 17.564L57.4073 16.747L54.5403 8.7995H56.0406L58.0461 14.8232Z" stroke="#FE9013" stroke-width="1.90145" mask="url(#path-1-inside-1)"/>
<path d="M13.0129 30.7435C13.0129 29.9562 13.1664 29.2481 13.4734 28.6192C13.7854 27.9904 14.2162 27.5051 14.7658 27.1634C15.3204 26.8218 15.9518 26.6509 16.6599 26.6509C17.7542 26.6509 18.6381 27.0298 19.3115 27.7874C19.9899 28.545 20.3291 29.5526 20.3291 30.8104V30.9069C20.3291 31.6893 20.178 32.3924 19.876 33.0163C19.5789 33.6353 19.1506 34.1181 18.591 34.4647C18.0364 34.8113 17.3977 34.9846 16.6747 34.9846C15.5853 34.9846 14.7015 34.6058 14.0231 33.8482C13.3496 33.0906 13.0129 32.0879 13.0129 30.8401V30.7435ZM14.3945 30.9069C14.3945 31.7982 14.5999 32.5137 15.0109 33.0535C15.4269 33.5932 15.9815 33.8631 16.6747 33.8631C17.3729 33.8631 17.9275 33.5907 18.3385 33.0461C18.7495 32.4964 18.955 31.7289 18.955 30.7435C18.955 29.8621 18.7445 29.1491 18.3236 28.6044C17.9077 28.0547 17.3531 27.7799 16.6599 27.7799C15.9815 27.7799 15.4343 28.0498 15.0184 28.5895C14.6024 29.1293 14.3945 29.9017 14.3945 30.9069Z" stroke="#FE9013" stroke-width="1.90145" mask="url(#path-1-inside-1)"/>
<path d="M23.3521 26.7995L23.3966 27.8096C24.0106 27.0372 24.8128 26.6509 25.8032 26.6509C27.5016 26.6509 28.3582 27.6091 28.3731 29.5254V34.8361H26.999V29.518C26.994 28.9386 26.8603 28.5103 26.5979 28.233C26.3404 27.9557 25.9368 27.8171 25.3872 27.8171C24.9416 27.8171 24.5504 27.9359 24.2137 28.1736C23.8769 28.4113 23.6145 28.7232 23.4263 29.1095V34.8361H22.0522V26.7995H23.3521Z" stroke="#FE9013" stroke-width="1.90145" mask="url(#path-1-inside-1)"/>
<path d="M31.9383 34.8361H30.5642V23.4274H31.9383V34.8361Z" stroke="#FE9013" stroke-width="1.90145" mask="url(#path-1-inside-1)"/>
<path d="M35.6372 34.8361H34.2631V26.7995H35.6372V34.8361ZM34.1517 24.6678C34.1517 24.445 34.2185 24.2568 34.3522 24.1033C34.4909 23.9498 34.6939 23.873 34.9613 23.873C35.2287 23.873 35.4317 23.9498 35.5704 24.1033C35.709 24.2568 35.7783 24.445 35.7783 24.6678C35.7783 24.8906 35.709 25.0763 35.5704 25.2249C35.4317 25.3734 35.2287 25.4477 34.9613 25.4477C34.6939 25.4477 34.4909 25.3734 34.3522 25.2249C34.2185 25.0763 34.1517 24.8906 34.1517 24.6678Z" stroke="#FE9013" stroke-width="1.90145" mask="url(#path-1-inside-1)"/>
<path d="M39.143 26.7995L39.1876 27.8096C39.8016 27.0372 40.6038 26.6509 41.5941 26.6509C43.2925 26.6509 44.1492 27.6091 44.164 29.5254V34.8361H42.7899V29.518C42.785 28.9386 42.6513 28.5103 42.3888 28.233C42.1313 27.9557 41.7278 27.8171 41.1781 27.8171C40.7325 27.8171 40.3413 27.9359 40.0046 28.1736C39.6679 28.4113 39.4054 28.7232 39.2173 29.1095V34.8361H37.8432V26.7995H39.143Z" stroke="#FE9013" stroke-width="1.90145" mask="url(#path-1-inside-1)"/>
<path d="M49.5713 34.9846C48.4819 34.9846 47.5955 34.6281 46.9122 33.9151C46.2289 33.1971 45.8872 32.2389 45.8872 31.0406V30.7881C45.8872 29.9909 46.0382 29.2803 46.3403 28.6564C46.6473 28.0275 47.0731 27.5373 47.6178 27.1857C48.1675 26.8292 48.7617 26.6509 49.4004 26.6509C50.4452 26.6509 51.2573 26.9951 51.8367 27.6834C52.416 28.3717 52.7057 29.357 52.7057 30.6395V31.2115H47.2613C47.2811 32.0037 47.5114 32.645 47.9521 33.1352C48.3977 33.6205 48.9622 33.8631 49.6455 33.8631C50.1308 33.8631 50.5418 33.7641 50.8785 33.566C51.2152 33.3679 51.5099 33.1055 51.7624 32.7787L52.6017 33.4323C51.9283 34.4672 50.9181 34.9846 49.5713 34.9846ZM49.4004 27.7799C48.8458 27.7799 48.3804 27.9829 48.0041 28.389C47.6277 28.7901 47.395 29.3546 47.3059 30.0825H51.3316V29.9785C51.292 29.2803 51.1038 28.7406 50.7671 28.3593C50.4304 27.973 49.9748 27.7799 49.4004 27.7799Z" stroke="#FE9013" stroke-width="1.90145" mask="url(#path-1-inside-1)"/>
<path d="M11.6607 23.7708L11.6236 23.7122C11.7096 23.6458 11.8219 23.5589 11.9383 23.4509C11.9838 23.4252 12.0219 23.4043 12.0584 23.3866C12.0651 23.3834 12.0715 23.3804 12.0776 23.3776C12.0782 23.3795 12.0788 23.3814 12.0795 23.3834C12.303 24.0494 12.5206 24.6981 12.7631 25.3002C12.7458 25.2653 12.7285 25.2306 12.7112 25.1961C12.6283 25.0308 12.5443 24.8679 12.4619 24.708C12.3031 24.3999 12.1501 24.1032 12.0218 23.8222L11.7654 23.9393C11.7307 23.8825 11.6958 23.8263 11.6607 23.7708ZM13.1251 26.1162C13.1506 26.168 13.1766 26.2192 13.2029 26.2699C13.1961 26.2748 13.1893 26.2798 13.1827 26.2849C13.1653 26.2296 13.146 26.1733 13.1251 26.1162ZM11.4578 22.4533C11.4526 22.4558 11.4474 22.4584 11.4422 22.461C11.4286 22.4196 11.4139 22.3777 11.3984 22.3353C11.418 22.375 11.4378 22.4143 11.4578 22.4533ZM10.3529 19.6025C10.5763 20.2685 10.794 20.9172 11.0364 21.5193C11.0192 21.4844 11.0019 21.4497 10.9846 21.4152C10.9016 21.2499 10.8177 21.087 10.7352 20.9271C10.5764 20.6191 10.4234 20.3223 10.2951 20.0413L10.0387 20.1584C10.0041 20.1016 9.9692 20.0454 9.93408 19.9899L9.90371 19.942L9.88036 19.9194C9.97584 19.8583 10.0923 19.778 10.2104 19.6707C10.2565 19.6447 10.2949 19.6236 10.3317 19.6057C10.3385 19.6025 10.3449 19.5995 10.3509 19.5967C10.3516 19.5986 10.3522 19.6005 10.3529 19.6025ZM14.8831 29.96C14.8984 29.9904 14.9139 30.0207 14.9295 30.0508C14.9261 30.0533 14.9227 30.0558 14.9193 30.0583C14.9076 30.0255 14.8955 29.9928 14.8831 29.96ZM13.7484 27.6031L13.4897 27.7213C13.4575 27.6672 13.4248 27.613 13.3916 27.5586L13.3528 27.4949C13.452 27.4287 13.5646 27.3419 13.6783 27.2243C13.718 27.2019 13.7522 27.1835 13.785 27.1675C13.7918 27.1643 13.7982 27.1612 13.8042 27.1585C13.8048 27.1604 13.8055 27.1623 13.8061 27.1643C14.0335 27.8419 14.2548 28.5015 14.5024 29.1124C14.492 29.0915 14.4815 29.0706 14.4711 29.0497C14.3943 28.8967 14.3164 28.7453 14.2385 28.594C14.0712 28.2688 13.9039 27.9437 13.7484 27.6031ZM15.0779 31.2733C15.1637 31.207 15.2756 31.1203 15.3914 31.0129C15.4349 30.9884 15.4675 30.971 15.498 30.9575C15.5182 30.9485 15.5317 30.944 15.5398 30.9418C15.5425 30.9434 15.5459 30.9457 15.55 30.9486C15.7594 31.598 15.9764 32.2636 16.2394 32.9141C16.2255 32.8863 16.2116 32.8584 16.1977 32.8306C16.121 32.6776 16.0431 32.5262 15.9652 32.3749C15.7978 32.0497 15.6306 31.7246 15.475 31.384L15.2163 31.5022C15.1841 31.4481 15.1514 31.3939 15.1183 31.3395L15.0779 31.2733ZM16.6886 33.9045C16.6832 33.9084 16.6779 33.9122 16.6728 33.9159C16.6561 33.8667 16.6384 33.8174 16.6199 33.7679C16.6425 33.8136 16.6654 33.8592 16.6886 33.9045Z" fill="white" stroke="#FE9013" stroke-width="0.950725"/>
<path d="M0.4 2C0.4 1.11634 1.11634 0.4 2 0.4H63.6C64.4837 0.4 65.2 1.11635 65.2 2V39.6C65.2 40.4837 64.4837 41.2 63.6 41.2H2C1.11635 41.2 0.4 40.4837 0.4 39.6V2Z" stroke="#FE9013" stroke-width="0.8"/>
</svg>
