<svg id="Clouds" xmlns="http://www.w3.org/2000/svg" xmlns:xlink="http://www.w3.org/1999/xlink" viewBox="0 0 448.5 473.56"><defs><style>.cls-1,.cls-2{fill:#92e3a9;}.cls-1,.cls-10,.cls-11,.cls-12,.cls-25,.cls-6,.cls-7,.cls-9{stroke:#263238;}.cls-1,.cls-12,.cls-25,.cls-26,.cls-27,.cls-7,.cls-9{stroke-miterlimit:10;}.cls-12,.cls-19,.cls-20,.cls-21,.cls-22,.cls-23,.cls-24,.cls-3,.cls-4{fill:#fff;}.cls-3{opacity:0.7;}.cls-25,.cls-5{fill:#bfbfbf;}.cls-26,.cls-27,.cls-6,.cls-7{fill:none;}.cls-10,.cls-11,.cls-6{stroke-linecap:round;stroke-linejoin:round;}.cls-8{fill:#48a171;}.cls-10,.cls-18,.cls-9{fill:#263238;}.cls-11{fill:#5c5c5c;}.cls-13{clip-path:url(#clip-path);}.cls-14,.cls-22{opacity:0.3;}.cls-15{clip-path:url(#clip-path-2);}.cls-16,.cls-23{opacity:0.2;}.cls-17,.cls-24{opacity:0.1;}.cls-19{opacity:0.6;}.cls-20{opacity:0.5;}.cls-21{opacity:0.4;}.cls-26{stroke:#92e3a9;}.cls-27{stroke:#5c5c5c;}</style><clipPath id="clip-path" transform="translate(-25.4 -17.67)"><path id="_Clipping_Path_" data-name="&lt;Clipping Path&gt;" class="cls-1" d="M409.86,312.87h0a26.71,26.71,0,0,1,.15,3.29,56,56,0,0,1-.53,6.68c0,0.12,0,.22-0.06.33-0.88-2.8-8.48-9.45-46.94,8.45l-1.88.88c-1.8.85-5.8,5-10.75,8.63-7,5.21-16,9.55-23.25,2.57l-0.55-.55,0,0c-0.19-.2-0.38-0.4-0.57-0.63s-0.44-.52-0.66-0.81-0.43-.58-0.64-0.87l-0.18-.27a89.4,89.4,0,0,1-4-8.18c0-.05,0-0.11-0.06-0.15l-0.07-.19h0.25a0,0,0,0,1,0,0l0.18,0a75,75,0,0,0,27.27-8.74C364.14,314.09,403.57,294.68,409.86,312.87Z"/></clipPath><clipPath id="clip-path-2" transform="translate(-25.4 -17.67)"><path id="_Clipping_Path_2" data-name="&lt;Clipping Path&gt;" class="cls-1" d="M409.15,309.61a12.51,12.51,0,0,1,.71,3.26c-6.29-18.2-45.72,1.21-62.33,10.36A75,75,0,0,1,320.25,332l-0.18,0c0-.26.36-2,1-4.64,0.38-1.5.86-3.32,1.46-5.36,0.33-1.12.7-2.31,1.1-3.56a0,0,0,0,0,0,0c0.82-2.5,1.8-5.22,2.95-8s2.47-5.72,4-8.6c0.3-.57.61-1.15,0.92-1.73s0.64-1.15,1-1.71,0.49-.85.75-1.27l0,0c0.18-.29.35-0.58,0.54-0.86s0.51-.81.78-1.21,0.72-1.09,1.09-1.63l0,0c0.38-.53.76-1.06,1.15-1.59s0.81-1.06,1.22-1.59l1.16-1.39c0.39-.46.79-0.92,1.19-1.35,0.71-.78,1.44-1.53,2.2-2.26l0.76-.71,0.78-.69,0.92-.79c0.23-.18.45-0.37,0.68-0.54l0.83-.64,0.47-.35,0.48-.34h0a3.1,3.1,0,0,1,.31-0.21c0.66-.47,1.33-0.89,2-1.31a32.83,32.83,0,0,1,6.3-2.93s10.53-3.32,26-2.84h0a95.86,95.86,0,0,1,19.21,2.49,21.91,21.91,0,0,1,6.18,2.5,23.14,23.14,0,0,0-4.27,15.45c0.58,6.58,3.81,11.86,5.37,14.54a3.12,3.12,0,0,1,.23.45C409,309.33,409.09,309.47,409.15,309.61Z"/></clipPath></defs><title>logo3</title><path class="cls-2" d="M473.89,233c0,86.69-100.4,215-224.25,215S25.4,319.67,25.4,233,125.79,76,249.64,76,473.89,146.28,473.89,233Z" transform="translate(-25.4 -17.67)"/><path class="cls-3" d="M473.89,233c0,86.69-100.4,215-224.25,215S25.4,319.67,25.4,233,125.79,76,249.64,76,473.89,146.28,473.89,233Z" transform="translate(-25.4 -17.67)"/><path class="cls-2" d="M427.22,303.55s10.37-.06,21.88-16.09c10.06-14-9-57.41-19.73-67.39s-31.52,44.53-29.1,58.35C403.72,298.09,418.54,303,427.22,303.55Z" transform="translate(-25.4 -17.67)"/><path class="cls-4" d="M438.13,243.37l0,0-11.26,8.09-0.67-21.72-1.19,1.5s-0.1,16.35-.21,36.67l-13.17-9.17c0.16,0.16,1.83,1.75.9,1.75l12.24,11.74c-0.06,11.2-.12,21.84-0.18,31,0,8.22-.08,15.25-0.11,20.39l4.91,1-0.85-21.22-0.43-10.93,16-15.88c-1.34,0,1.05-2.27,1.28-2.5l-17.43,12.55-1-31.3,10.28-10.22c-0.88,0,.58-1.44.87-1.71" transform="translate(-25.4 -17.67)"/><path class="cls-5" d="M435.7,339.57c-28.38,41.24-70.52,78.19-119.92,96.46-96.28-41.46-172.66-59-227.12-65.92a276.22,276.22,0,0,1-30.91-40.53C104.39,315.85,228,292.21,435.7,339.57Z" transform="translate(-25.4 -17.67)"/><path class="cls-6" d="M57.75,329.58l0.24-.07,1.93-.56,0.43-.12,2.51-.7,0.11,0,2.14-.58c1.45-.4,3-0.79,4.53-1.18l1.19-.3c1.49-.38,3-0.75,4.63-1.12l1.61-.38,1.31-.3,1.44-.32h0l1.25-.27c0.87-.2,1.76-0.39,2.67-0.58L84,323l0.47-.1,0.77-.16,1.33-.28,2-.4,1.06-.22,1-.2,2-.39,3.11-.58,3.2-.58,0.66-.12,1.23-.21,5.35-.9,2.34-.37,0.15,0h0l0.35-.05,0.53-.08,4.58-.69,0.23,0,0.66-.1h0l0.7-.1,0.74-.1,1.45-.21H118c2.65-.36,5.37-0.72,8.16-1.06l2.51-.3,5.14-.58,0.1,0h0l2.52-.26,2.86-.29,3.14-.3,2.93-.27,3.09-.27,2.86-.24q6.46-.51,13.3-0.91l2.77-.16,3.63-.19,5-.22,0.66,0,1.58-.06,2.46-.09c1.9-.07,3.81-0.13,5.74-0.18l3.25-.08,3.3-.07h0.37l3,0q7.44-.11,15.26-0.05l3.5,0,1.74,0,3.48,0,2.43,0.05h0.07l4,0.09,2.13,0.06,2.18,0.06,2.55,0.08h0.05l2.12,0.08,1.18,0,1.26,0.05,3.69,0.15,1.79,0.08,1.37,0.06,4.93,0.25,3.2,0.18,4.5,0.26,0.48,0,4.53,0.3,1.1,0.07h0l1.54,0.11,3.38,0.24q4,0.3,8.18.64l0.54,0h0l2.38,0.2h0q3.84,0.33,7.74.7l1.94,0.18,1.51,0.15,6.57,0.66,3.9,0.41,4.2,0.47q8.61,1,17.51,2.11l4.4,0.58,4.31,0.59,4.49,0.63,4.53,0.65c2.36,0.35,4.74.7,7.14,1.07h0l2,0.31,4.63,0.73,4.67,0.75,7.69,1.29,2.51,0.43,3.44,0.59,6.07,1.09h0l3.83,0.7,3.4,0.62,4.33,0.83,3.89,0.75h0q6.64,1.29,13.43,2.68l3.94,0.82,1.64,0.34,0.45,0.1q7,1.46,14.06,3l3.08,0.69,4.35,1" transform="translate(-25.4 -17.67)"/><path class="cls-6" d="M88.66,370.11a488.28,488.28,0,0,0-52.31-3.93" transform="translate(-25.4 -17.67)"/><path class="cls-6" d="M315.78,436c-96.28-41.46-172.66-59-227.12-65.92" transform="translate(-25.4 -17.67)"/><path class="cls-6" d="M369.09,460.53Q341.5,447.07,315.78,436" transform="translate(-25.4 -17.67)"/><path class="cls-7" d="M265.68,397.1q17.29,6.45,33.87,13.76" transform="translate(-25.4 -17.67)"/><path class="cls-7" d="M193.18,374.36c22.85,5.95,45.11,12.78,66.61,20.57" transform="translate(-25.4 -17.67)"/><path class="cls-7" d="M145.83,363.44q19.92,4,39.37,8.89" transform="translate(-25.4 -17.67)"/><path class="cls-7" d="M134.68,361.24l6,1.15" transform="translate(-25.4 -17.67)"/><path class="cls-7" d="M292.05,382.56a594.61,594.61,0,0,1,90.18,35.36" transform="translate(-25.4 -17.67)"/><path class="cls-7" d="M282.43,379.75q3,0.83,5.9,1.7" transform="translate(-25.4 -17.67)"/><path class="cls-7" d="M253.58,372.39q10.17,2.33,20.25,5" transform="translate(-25.4 -17.67)"/><path class="cls-7" d="M163.26,360.88c7.12,1.43,16.78,3.36,23.92,4.74" transform="translate(-25.4 -17.67)"/><path class="cls-7" d="M134.68,355.19c8,1.54,17,3.34,26.25,5.22" transform="translate(-25.4 -17.67)"/><path class="cls-7" d="M124.41,353.33q3.61,0.63,7.26,1.31" transform="translate(-25.4 -17.67)"/><path class="cls-7" d="M59.91,347a347.55,347.55,0,0,1,55.32,4.78" transform="translate(-25.4 -17.67)"/><path class="cls-7" d="M410.93,351.66q-3-.62-6-1.21l-1-.2-0.62-.12q-19-3.67-38.13-6.1-8.34-1.07-16.7-1.87-12.3-1.23-24.64-1.91h-0.05L319,340" transform="translate(-25.4 -17.67)"/><path class="cls-7" d="M424.56,354.64q-4.48-1-9-2" transform="translate(-25.4 -17.67)"/><path class="cls-7" d="M443.56,327.48l-5.74-1.18-4.56-.92-3.9-.77-4.91-1-0.89-.17-4.36-.83q-4.45-.84-8.85-1.64l-0.63-.11-4.68-.84h0l-1.51-.28h-0.09l-2.15-.38-3.49-.6c-2.81-.48-5.61-0.95-8.38-1.4l-4-.65-0.39-.06-3.91-.62q-4.11-.65-8.18-1.25l-2-.3-2-.3-2.49-.36h0l-1.53-.22-4-.56-4-.55-4.59-.61c-2.82-.38-5.61-0.73-8.38-1.07q-7.62-.94-15-1.75l-1.38-.15-0.26,0-1.76-.19q-5.79-.62-11.44-1.15l-1.49-.14L308.3,307l-4.2-.37c-2.58-.22-5.13-0.43-7.67-0.62l-4.75-.36-4.07-.28c-2.76-.19-5.5-0.36-8.22-0.53l-6-.34-3-.15-5-.24-3.86-.16-2.91-.11-2.89-.1-5.32-.17-3.23-.08-2.81-.06-4.8-.09-3.53,0-5.35,0h-0.08c-24.76-.11-47,0.92-66.87,2.64-3.33.28-6.6,0.59-9.79,0.92-1.07.1-2.12,0.21-3.17,0.33-3.15.33-6.23,0.69-9.24,1.06-1,.11-1.94.24-2.89,0.36h-0.1l-0.62.08L136,309l-1.72.23-4.17.58-2.27.33h0l-4.54.69-4.41.71c-1.26.21-2.5,0.41-3.72,0.63l-2,.34-0.42.08q-2.88.51-5.64,1l-0.13,0h0q-8.59,1.63-16.08,3.35c-0.6.12-1.19,0.26-1.78,0.4l-1.74.41-0.55.13-1.94.46-0.58.14-0.18,0L82.3,319l-2.14.54-1.26.32c-2.69.7-5.25,1.39-7.66,2.07l-1.95.56L67.4,323l-1.45.43c-1,.31-2,0.61-3,0.92-1.18.36-2.31,0.72-3.4,1.08-1.27.41-2.48,0.8-3.62,1.19" transform="translate(-25.4 -17.67)"/><path class="cls-8" d="M62.08,416.36l-5.73-.54,0.11-1.18q-3.5.16-7,.27a60,60,0,0,1-6.92-.12q-4.77-.45-4.32-5.17l1.47-15.53q0.46-4.9,5.41-4.43l13.69,1.3L60,378.12l-12.51-1.18L46.8,384.2l-5.64-.53,0.68-7.17q0.47-4.94,5.37-4.48l14,1.32q4.9,0.46,4.43,5.41Zm-5.14-5.83,1.42-15.05-13-1.23-1.45,15.31Z" transform="translate(-25.4 -17.67)"/><path class="cls-8" d="M94.27,415.94q-0.73,4.91-5.64,4.18l-13.26-2q-4.91-.73-4.18-5.64l1.43-9.61,5.69,0.85-1.41,9.52L88.59,415l1.25-8.43L76.55,391.94A5.58,5.58,0,0,1,75,387.1l1-7q0.73-4.91,5.64-4.18l13.08,1.94q4.91,0.73,4.18,5.64l-1.25,8.43-5.61-.83,1.24-8.35L81.69,381l-1.1,7.39L94,403a5.63,5.63,0,0,1,1.45,4.92Z" transform="translate(-25.4 -17.67)"/><path class="cls-8" d="M133.73,384.9l-18.13,39.69-7.32,15.46L102.63,439,110,423.51l-2.33-43.64,5.91,1.14,0.79,34.44L128,383.79Z" transform="translate(-25.4 -17.67)"/><path class="cls-8" d="M156,433.89l-5.69-1.33L158.84,396l-12.62-2.6-8.48,36.2L132,428.29l9.76-41.63L147.5,388l-0.27,1.16q3.44,0.35,6.93.68a58,58,0,0,1,6.88,1.07q4.75,1.11,3.66,5.78Z" transform="translate(-25.4 -17.67)"/><path class="cls-8" d="M188.74,437.58q-1.31,4.79-6.06,3.49l-13.39-3.68q-4.75-1.3-3.43-6.09l8.69-31.66q1.31-4.79,6.06-3.49L194,399.83q4.75,1.3,3.43,6.09l-2.26,8.22-5.55-1.52,2.21-8.05-11.7-3.21-8.59,31.32,11.7,3.21,2.52-9.2,5.55,1.52Z" transform="translate(-25.4 -17.67)"/><path class="cls-8" d="M242.84,429.78l-5.47-1.8,2.76-8.39-10.34-3-11.64,35.31L212.61,450,226,409.43l5.55,1.83-0.37,1.13q2.89,0.49,5.84,1a40.81,40.81,0,0,1,5.71,1.33q4.59,1.51,3.09,6.06Z" transform="translate(-25.4 -17.67)"/><path class="cls-8" d="M263.13,467.58l-5.41-2,0.41-1.11q-3.43-.73-6.84-1.51a59.31,59.31,0,0,1-6.66-1.86q-4.5-1.64-2.88-6.1l5.33-14.66q1.68-4.62,6.35-2.93l12.93,4.7,4.4-12.1-11.81-4.3-2.49,6.85-5.33-1.94,2.46-6.77q1.7-4.67,6.32-3l13.22,4.81q4.62,1.68,2.93,6.35Zm-3.51-6.93,5.17-14.21L252.52,442l-5.26,14.45Z" transform="translate(-25.4 -17.67)"/><path class="cls-8" d="M295.5,475q-1.84,4.61-6.41,2.79l-12.9-5.15q-4.57-1.82-2.73-6.44l12.16-30.49q1.84-4.61,6.41-2.79l12.9,5.15q4.57,1.82,2.73,6.44l-3.16,7.92-5.35-2.13,3.09-7.76L291,438.05l-12,30.16,11.26,4.49,3.53-8.86,5.35,2.13Z" transform="translate(-25.4 -17.67)"/><path class="cls-8" d="M325.9,488q-2,4.56-6.49,2.6L306.5,485q-4.52-2-2.54-6.51L317,448.41q2-4.55,6.49-2.6l12.9,5.59q4.52,2,2.54,6.51L332.83,472l-2.64,1.11-14.92-6.47-6.15,14.19,11.53,5,3.11-7.18,5.2,2.25Zm2.77-20.64,5.12-11.81-11.53-5-5.12,11.81Z" transform="translate(-25.4 -17.67)"/><path class="cls-7" d="M130.09,309.77A456.48,456.48,0,0,0,71.24,321.9l-1.81.19L56.33,227c1-1.06,24.32-32.64,57.15-32.2Z" transform="translate(-25.4 -17.67)"/><path class="cls-7" d="M356.87,312.52c-79.86-10.82-144-10.85-193.15-6.58l-4.6-67.23s81-55.82,193-35.23Z" transform="translate(-25.4 -17.67)"/><path class="cls-7" d="M59.49,242.26c2-4.26,31-28,49.64-27.7" transform="translate(-25.4 -17.67)"/><path class="cls-7" d="M61.48,258.23c3.34-4,33-25,50.71-24.37" transform="translate(-25.4 -17.67)"/><path class="cls-7" d="M63.46,274.19c4.65-3.77,35-21.92,51.79-21" transform="translate(-25.4 -17.67)"/><path class="cls-7" d="M65.45,290.16c6-3.52,36.92-18.88,52.86-17.71" transform="translate(-25.4 -17.67)"/><path class="cls-7" d="M67.44,306.13c7.28-3.27,38.88-15.85,53.93-14.38" transform="translate(-25.4 -17.67)"/><line class="cls-7" x1="139.34" y1="225.86" x2="141.21" y2="254.52"/><line class="cls-7" x1="159.79" y1="216.63" x2="161.72" y2="240.19"/><line class="cls-7" x1="182.99" y1="207.3" x2="185.06" y2="232.15"/><line class="cls-7" x1="211.56" y1="199.77" x2="214.27" y2="229.44"/><line class="cls-7" x1="245.11" y1="194.88" x2="247.6" y2="229.92"/><line class="cls-7" x1="279.85" y1="193.75" x2="281.94" y2="236.22"/><line class="cls-7" x1="313.8" y1="197.18" x2="314.9" y2="219.73"/><path class="cls-7" d="M31.69,261.25" transform="translate(-25.4 -17.67)"/><path class="cls-9" d="M89.84,347.72l11.5,0.26s-18.26-29.35-14-38.46c4.19-8.95-8.61,7,.33,36.55A2.35,2.35,0,0,0,89.84,347.72Z" transform="translate(-25.4 -17.67)"/><path class="cls-10" d="M298.9,369.48s-1.91-6.29-6-6.8,2.44-12.65,1.24-26.31C294.15,336.37,297.63,346.5,298.9,369.48Z" transform="translate(-25.4 -17.67)"/><path class="cls-9" d="M232.81,367.19h19.12s-9.2-55.87-8.36-60.5C245.56,295.71,211,313.09,232.81,367.19Z" transform="translate(-25.4 -17.67)"/><path class="cls-9" d="M124.61,348.67c-4.57,1.9-22.13,1.14-22.13,1.14,9.14,0,15.62-10.58,14.48-23.63-1-11.31-7.37-20.75-15-23.07C118.23,301.22,129.18,346.76,124.61,348.67Z" transform="translate(-25.4 -17.67)"/><path class="cls-9" d="M261.39,375.68s6.88,2.12,30-5.7c4.5-1.52,8.63-8.92,6.88-17.59s-4.33-32.46-25.22-41.87S261.39,375.68,261.39,375.68Z" transform="translate(-25.4 -17.67)"/><path class="cls-11" d="M288.49,340c1.72,19.7-10.41,35.68-27.11,35.68S229.76,359.7,228,340s10.41-35.68,27.11-35.68S286.77,320.29,288.49,340Z" transform="translate(-25.4 -17.67)"/><path class="cls-9" d="M280.67,338.76c0.87,10-2.72,18.77-8.85,23.84A19.74,19.74,0,0,1,259,367.25c-13.34,0-25.26-12.75-26.64-28.49s8.32-28.5,21.66-28.5a24.28,24.28,0,0,1,16.72,7.25A33.86,33.86,0,0,1,280.67,338.76Z" transform="translate(-25.4 -17.67)"/><path class="cls-5" d="M279.67,338.76c0.87,10-2.72,18.77-8.85,23.84a15.79,15.79,0,0,1-3.61.41c-10.95,0-20.74-10.48-21.87-23.4s6.83-23.4,17.77-23.4a17.91,17.91,0,0,1,6.65,1.3A33.86,33.86,0,0,1,279.67,338.76Z" transform="translate(-25.4 -17.67)"/><path class="cls-9" d="M409.59,323c-0.12.3-.24,0.56-0.36,0.81-11,1.3-38.73,5-46.75,7.83,38.46-17.9,46.06-11.26,46.94-8.45,0-.11,0-0.21.06-0.33Z" transform="translate(-25.4 -17.67)"/><path class="cls-11" d="M413.08,326.26c-2.34.78-5.18,1.63-8.58,2.49C391.89,332,370.7,335,370.7,335c-4.09,2.28-7.25,14.49-10.39,22.05h0c-0.42,1-.85,2-1.28,2.8a8.88,8.88,0,0,1-2.19,2.62h0a14.21,14.21,0,0,1-1.62,1.22h0c-18,.17-19.46-3.28-19.46-3.28-5.64-9-9.35-15.44-11.75-19.89l0.18,0.27c0.21,0.3.42,0.6,0.64,0.87s0.43,0.55.66,0.81,0.38,0.43.57,0.63l0,0,0.55,0.55c7.3,7,16.24,2.64,23.26-2.57,4.95-3.67,8.95-7.77,10.75-8.63l1.88-.88c8-2.82,35.74-6.53,46.75-7.83l0.46-.05C409.6,324.36,411.92,325.65,413.08,326.26Z" transform="translate(-25.4 -17.67)"/><path class="cls-12" d="M362.48,331.63l-1.88.88A7,7,0,0,1,362.48,331.63Z" transform="translate(-25.4 -17.67)"/><path class="cls-9" d="M413.71,326.58a106,106,0,0,1-.31,14.12c-6.81-.18-10.45,9.91-11.27,12.5-9.52,2.78-21.94,5.62-31.1,7.59H371c-2.55.55-4.84,1-6.74,1.43h-0.07c-3,.64-5.05,1-5.56,1.13l-1.81.33-2.18.39a379,379,0,0,1-55.18,5.38,137.19,137.19,0,0,0-1.81-15.33,88.89,88.89,0,0,0-6-20.32l27-1.73h0.19l1-.06h0l0.07,0.19s0,0.1.06,0.15c0.35,1,.72,1.88,1.09,2.75,0.13,0.32.28,0.63,0.42,0.94l0.43,0.89,0.32,0.64,0.34,0.63c0.17,0.31.34,0.61,0.51,0.89s0.41,0.69.62,1l0.29,0.43c2.4,4.45,6.11,10.9,11.75,19.89,0,0,1.51,3.45,19.46,3.28h0a14.21,14.21,0,0,0,1.62-1.22h0a8.88,8.88,0,0,0,2.19-2.62c0.43-.82.86-1.76,1.28-2.8h0c3.14-7.56,6.3-19.77,10.39-22.05,0,0,21.19-3,33.8-6.26,3.4-.86,6.24-1.71,8.58-2.49h0C413.46,326.46,413.71,326.58,413.71,326.58Z" transform="translate(-25.4 -17.67)"/><path class="cls-9" d="M123,348.59a63,63,0,0,0-.82-9c4.8,2,7.49,2.14,11.3,2.95,1.88,0.4,5.46,1,10.11,1.6,17.31,2.26,49.4,4.6,63.43-2.74a6.76,6.76,0,0,1,.72-0.12s0,0,0,0c2.27-.26,9.6-0.94,19-1.79a114.16,114.16,0,0,0,6.1,27.72Z" transform="translate(-25.4 -17.67)"/><path class="cls-6" d="M409.15,309.61a12.51,12.51,0,0,1,.71,3.26h0a26.7,26.7,0,0,1,.15,3.29,56,56,0,0,1-.53,6.68l0.11,0.15,0.48,0.76a30.81,30.81,0,0,0,.32-3.38c0-1,.06-2.11,0-3.23A21.82,21.82,0,0,0,409.15,309.61Z" transform="translate(-25.4 -17.67)"/><path class="cls-1" d="M425.21,262.82c-7.22,12.91-17.58,15.94-17.58,15.94a21.91,21.91,0,0,0-6.18-2.5,95.86,95.86,0,0,0-19.21-2.49c0.39,0,.77-0.06,1.16-0.07l3.81,0.13s2.08-.76,4.51-4.8a13.33,13.33,0,0,0,1-2,5,5,0,0,0,0-3.76c5,0.49,19.28,1.12,27.91-6.32,1.68-1.46,1.05-3.92-.87-5.41a6.9,6.9,0,0,0-.69-0.46C420.68,251,431.92,250.83,425.21,262.82Z" transform="translate(-25.4 -17.67)"/><path class="cls-1" d="M301.11,258.64L330.24,267c-3.2,9.05-7.58,13.31-10.62,15.28l-21.85.94c-9.6.64-19.46,1.43-28.83,2.4-30.46,3.14-41,21.25-41,21.25-20.92,25.44-89.43,10.25-89.43,10.25-7.86-3-8-4.17-13.14-9.69-2.64-2.81-4.6-6.22-7.34-8.94-2.12-2.1-8.29-6.14-14.05-7l-1.92.09c0.09-.12.11-0.2,0.06-0.24h0c-1.17-.38,44.51-3.55,47.54-4.69l2.35-5a9.33,9.33,0,0,1,9.25-5.31c1.69,0.11,3.11.2,3.34,0.23,0.61-.45,20.3-14.9,42.5-21.63,22.56-6.83,39.37-1.14,50.63-2.65s34.6-.64,34.6-0.64l-3.19,4.06Z" transform="translate(-25.4 -17.67)"/><path class="cls-1" d="M329.84,268.07l0,0.06a39.68,39.68,0,0,1-1.75,4v0l-0.05.1c-0.35.67-.7,1.31-1.05,1.91l-0.48.78c-0.47.77-1,1.47-1.44,2.11-0.29.38-.57,0.75-0.86,1.09l-0.1.11c-0.16.19-.32,0.38-0.48,0.55l-0.12.14c-0.28.31-.55,0.59-0.82,0.85l-0.54.52c-0.28.25-.55,0.49-0.82,0.71l-0.47.38-0.39.29c-0.28.21-.55,0.39-0.81,0.56l27.94-1.2h0c0.75-.55,1.52-1,2.31-1.51-2.64,1.37-4.37,2.4-3.53.36a1.49,1.49,0,0,1,.13-0.25c1.42-2.74,8-7,8-7l0.13,0c1.42-.54,8.18-4,12.29-15.77l0.13,0a40,40,0,0,0,1.06-17.61c-0.69-1-2.1-1.87-5-1.51-5.46.69-24.11,4.45-28.38,5.31l-0.1,0a7.72,7.72,0,0,0-5.93,9.69c0.39,1.35.78,2.64,1.14,3.83,0,0,.17.55,0.42,1.31a15.08,15.08,0,0,1,0,9" transform="translate(-25.4 -17.67)"/><path class="cls-7" d="M329.84,268.07c0.13-.36.27-0.73,0.4-1.1" transform="translate(-25.4 -17.67)"/><path class="cls-10" d="M420.61,256.91c-8.63,7.44-22.88,6.81-27.91,6.32a5.89,5.89,0,0,0-4.7-3.71l-21-2.64a40,40,0,0,0,1.06-17.61,3.93,3.93,0,0,1,.64,2.29l50.16,9.49h0.19a6.9,6.9,0,0,1,.69.46C421.66,253,422.29,255.45,420.61,256.91Z" transform="translate(-25.4 -17.67)"/><path class="cls-9" d="M193.45,264.11l-24.65,13.5,1,11.77,67.57-4.18,35-13.27-63.19-10.87A26.87,26.87,0,0,0,193.45,264.11Z" transform="translate(-25.4 -17.67)"/><path class="cls-9" d="M330.24,267l-0.48-.14c-4.78-1.42-39.3-11.58-40.67-11.23s-36.65,1.9-36.65,1.9l74.51,16.66c0.35-.6.7-1.24,1.05-1.91l0.05-.1v0l1.75-4,0-.06" transform="translate(-25.4 -17.67)"/><path class="cls-1" d="M347.56,281.05c-20.7,14.57-27.35,50.07-27.5,51h-0.25l-1.19.07-27,1.73-0.14-.3c-12.51-28-34.84-27.83-34.84-27.83-21.18-2-28.42,9.45-29.87,23a61.23,61.23,0,0,0-.06,10.81c-9.37.85-16.7,1.53-19,1.79a4.42,4.42,0,0,0,.69-0.89c5.83-10.44,7.54-19.26,11.55-26.88a34.44,34.44,0,0,0,3.49-2.37l0.1-.08a20.16,20.16,0,0,0,2.64-2.37,23.23,23.23,0,0,0,1.67-1.84s3.81-6.51,13.43-12.4c6.41-3.93,15.42-7.58,27.62-8.85,9.37-1,19.23-1.76,28.82-2.4Z" transform="translate(-25.4 -17.67)"/><path class="cls-1" d="M220,313.49c-4,7.62-5.72,16.44-11.55,26.88a4.42,4.42,0,0,1-.69.89h0a5.74,5.74,0,0,0-.72.12c-7.5,3.92-20.15,5.08-32.94,5l-1.38,0-1.31,0c-0.55,0-1.11,0-1.67-.05-1.64-.05-3.27-0.11-4.87-0.2-0.72,0-1.44-.07-2.15-0.12l-0.41,0-3.27-.22-1.59-.13-1.58-.13c-3.24-.27-6.33-0.59-9.12-0.92l-2.3-.29-0.84-.11c-4.64-.59-8.22-1.19-10.1-1.59-3.81-.81-6.5-1-11.31-2.95a88.24,88.24,0,0,0-5.86-20.89c-4.56-10.53-11.56-18.69-21.24-16-6.22,1.71-9.22,6.9-10.4,13.15a2,2,0,0,0-.07.33c-2.37,13.08,2.93,30.55,2.93,30.55l-8-4.93,4.08-1.14L78,316l4.22-3.8L85.62,303s15.14-9.77,16.4-11.51l1.92-.08c5.77,0.86,11.93,4.91,14.05,7,2.74,2.73,4.7,6.14,7.34,8.95,5.17,5.51,5.27,6.65,13.14,9.69,0,0,.47.11,1.37,0.29C148.48,319.12,196,327.81,220,313.49Z" transform="translate(-25.4 -17.67)"/><path class="cls-1" d="M226.23,308.67a20.16,20.16,0,0,1-2.64,2.37A28.6,28.6,0,0,0,226.23,308.67Z" transform="translate(-25.4 -17.67)"/><path class="cls-1" d="M241.32,294.43c-9.61,5.89-13.43,12.4-13.43,12.4a23.23,23.23,0,0,1-1.67,1.84,20.16,20.16,0,0,1-2.64,2.37l-0.1.08c-1.91,1.37-3.09,1.59-3.49,2.37-4,7.62-5.72,16.44-11.55,26.88a4.42,4.42,0,0,1-.69.89h0a5.74,5.74,0,0,0-.72.12c-7.5,3.92-20.15,5.08-32.94,5l-1.38,0-1.31,0c-0.55,0-1.11,0-1.67-.05-1.64-.05-3.27-0.11-4.87-0.2-0.72,0-1.44-.07-2.15-0.12l-0.41,0-3.27-.22-1.59-.13-1.58-.13c-3.24-.27-6.33-0.59-9.12-0.92l-2.3-.29-0.84-.11c-0.77-1.2,0-10.32,0-10.32s-2.21-8.06-3.77-16.41c-1-5.38-1.75-10.9-1.48-14.46,0.72-9.11,9.58-14.93,9.58-14.93,9.71-4.56,20.84-10.37,20.84-10.37l1,11.76,67.58-4.17Z" transform="translate(-25.4 -17.67)"/><path class="cls-1" d="M163.91,276.73s-5.49-2-9.86,1.52l-4.46,8.35a30.18,30.18,0,0,0,15.59,1.77S164.71,285.84,163.91,276.73Z" transform="translate(-25.4 -17.67)"/><path class="cls-4" d="M156.11,279.22a3.92,3.92,0,0,0-.37,5.95c2.64,2.66,8.19,1,8.6,1l-0.83-7.6S161.05,276.43,156.11,279.22Z" transform="translate(-25.4 -17.67)"/><path class="cls-7" d="M159.2,334.56c13.74-.46,41.07-1.54,46.95-3" transform="translate(-25.4 -17.67)"/><path class="cls-7" d="M151.28,334.8l4.8-.14" transform="translate(-25.4 -17.67)"/><path class="cls-12" d="M82.46,312a5,5,0,0,0,1.88,3.52" transform="translate(-25.4 -17.67)"/><polygon class="cls-12" points="294.41 314.35 294.41 314.36 293.23 314.43 294.41 314.35"/><path id="_Clipping_Path_3" data-name="&lt;Clipping Path&gt;" class="cls-2" d="M409.86,312.87h0a26.71,26.71,0,0,1,.15,3.29,56,56,0,0,1-.53,6.68c0,0.12,0,.22-0.06.33-0.88-2.8-8.48-9.45-46.94,8.45l-1.88.88c-1.8.85-5.8,5-10.75,8.63-7,5.21-16,9.55-23.25,2.57l-0.55-.55,0,0c-0.19-.2-0.38-0.4-0.57-0.63s-0.44-.52-0.66-0.81-0.43-.58-0.64-0.87l-0.18-.27a89.4,89.4,0,0,1-4-8.18c0-.05,0-0.11-0.06-0.15l-0.07-.19h0.25a0,0,0,0,1,0,0l0.18,0a75,75,0,0,0,27.27-8.74C364.14,314.09,403.57,294.68,409.86,312.87Z" transform="translate(-25.4 -17.67)"/><g class="cls-13"><path class="cls-14" d="M409.86,312.87h0a26.71,26.71,0,0,1,.15,3.29,56,56,0,0,1-.53,6.68c0,0.12,0,.22-0.06.33-0.88-2.8-8.48-9.45-46.94,8.45l-1.88.88c-1.8.85-5.8,5-10.75,8.63-7,5.21-16,9.55-23.25,2.57l-0.55-.55,0,0c-0.19-.2-0.38-0.4-0.57-0.63s-0.44-.52-0.66-0.81-0.43-.58-0.64-0.87l-0.18-.27a89.4,89.4,0,0,1-4-8.18c0-.05,0-0.11-0.06-0.15l-0.07-.19h0.25a0,0,0,0,1,0,0l0.18,0a75,75,0,0,0,27.27-8.74C364.14,314.09,403.57,294.68,409.86,312.87Z" transform="translate(-25.4 -17.67)"/></g><path id="_Clipping_Path_4" data-name="&lt;Clipping Path&gt;" class="cls-7" d="M409.86,312.87h0a26.71,26.71,0,0,1,.15,3.29,56,56,0,0,1-.53,6.68c0,0.12,0,.22-0.06.33-0.88-2.8-8.48-9.45-46.94,8.45l-1.88.88c-1.8.85-5.8,5-10.75,8.63-7,5.21-16,9.55-23.25,2.57l-0.55-.55,0,0c-0.19-.2-0.38-0.4-0.57-0.63s-0.44-.52-0.66-0.81-0.43-.58-0.64-0.87l-0.18-.27a89.4,89.4,0,0,1-4-8.18c0-.05,0-0.11-0.06-0.15l-0.07-.19h0.25a0,0,0,0,1,0,0l0.18,0a75,75,0,0,0,27.27-8.74C364.14,314.09,403.57,294.68,409.86,312.87Z" transform="translate(-25.4 -17.67)"/><path class="cls-1" d="M319.94,332.37a89.4,89.4,0,0,0,4,8.18l-0.29-.43c-0.21-.32-0.42-0.66-0.62-1s-0.35-.59-0.51-0.89l-0.34-.63-0.32-.64-0.43-.89c-0.14-.31-0.29-0.62-0.42-0.94C320.66,334.25,320.29,333.34,319.94,332.37Z" transform="translate(-25.4 -17.67)"/><path id="_Clipping_Path_5" data-name="&lt;Clipping Path&gt;" class="cls-2" d="M409.15,309.61a12.51,12.51,0,0,1,.71,3.26c-6.29-18.2-45.72,1.21-62.33,10.36A75,75,0,0,1,320.25,332l-0.18,0c0-.26.36-2,1-4.64,0.38-1.5.86-3.32,1.46-5.36,0.33-1.12.7-2.31,1.1-3.56a0,0,0,0,0,0,0c0.82-2.5,1.8-5.22,2.95-8s2.47-5.72,4-8.6c0.3-.57.61-1.15,0.92-1.73s0.64-1.15,1-1.71,0.49-.85.75-1.27l0,0c0.18-.29.35-0.58,0.54-0.86s0.51-.81.78-1.21,0.72-1.09,1.09-1.63l0,0c0.38-.53.76-1.06,1.15-1.59s0.81-1.06,1.22-1.59l1.16-1.39c0.39-.46.79-0.92,1.19-1.35,0.71-.78,1.44-1.53,2.2-2.26l0.76-.71,0.78-.69,0.92-.79c0.23-.18.45-0.37,0.68-0.54l0.83-.64,0.47-.35,0.48-.34h0a3.1,3.1,0,0,1,.31-0.21c0.66-.47,1.33-0.89,2-1.31a32.83,32.83,0,0,1,6.3-2.93s10.53-3.32,26-2.84h0a95.86,95.86,0,0,1,19.21,2.49,21.91,21.91,0,0,1,6.18,2.5,23.14,23.14,0,0,0-4.27,15.45c0.58,6.58,3.81,11.86,5.37,14.54a3.12,3.12,0,0,1,.23.45C409,309.33,409.09,309.47,409.15,309.61Z" transform="translate(-25.4 -17.67)"/><g class="cls-15"><path class="cls-16" d="M328,308.07c3.18-7.08,11.47-13.54,11.47-13.54,25.73-3.8,64-4.93,63.64-1.39h0.21a23.25,23.25,0,0,1,4.34-14.38,21.91,21.91,0,0,0-6.18-2.5,95.86,95.86,0,0,0-19.21-2.49h0c-15.5-.48-26,2.84-26,2.84a32.83,32.83,0,0,0-6.3,2.93c-0.69.42-1.35,0.84-2,1.31a3.1,3.1,0,0,0-.31.21h0l-0.48.34-0.47.35-0.83.64c-0.23.17-.45,0.36-0.68,0.54l-0.92.79-0.78.69-0.76.71c-0.76.72-1.49,1.48-2.2,2.26-0.4.44-.81,0.89-1.19,1.35l-1.16,1.39c-0.41.52-.82,1.05-1.22,1.59s-0.77,1.05-1.15,1.59l0,0c-0.37.54-.74,1.09-1.09,1.63s-0.53.81-.78,1.21-0.36.58-.54,0.86l0,0c-0.26.42-.51,0.84-0.75,1.27s-0.67,1.14-1,1.71-0.62,1.15-.92,1.73c-1.35,2.58-2.54,5.16-3.6,7.69l0.21,0Z" transform="translate(-25.4 -17.67)"/><path class="cls-17" d="M409,309.19a3.12,3.12,0,0,0-.23-0.45c-1.56-2.67-4.8-8-5.37-14.54,0-.35-0.05-0.71-0.07-1.07h-0.21c0.32-3.54-37.91-2.4-63.64,1.39,0,0-8.29,6.45-11.47,13.54l-0.76,1.39-0.21,0-0.38.91c-1.15,2.81-2.13,5.53-2.95,8a0,0,0,0,1,0,0c-0.4,1.25-.78,2.44-1.1,3.56-0.6,2-1.08,3.85-1.46,5.36-0.66,2.68-1,4.39-1,4.64l0.18,0a75,75,0,0,0,27.27-8.74c16.61-9.15,56-28.56,62.33-10.36a12.51,12.51,0,0,0-.71-3.26C409.09,309.47,409,309.33,409,309.19Z" transform="translate(-25.4 -17.67)"/></g><path id="_Clipping_Path_6" data-name="&lt;Clipping Path&gt;" class="cls-7" d="M409.15,309.61a12.51,12.51,0,0,1,.71,3.26c-6.29-18.2-45.72,1.21-62.33,10.36A75,75,0,0,1,320.25,332l-0.18,0c0-.26.36-2,1-4.64,0.38-1.5.86-3.32,1.46-5.36,0.33-1.12.7-2.31,1.1-3.56a0,0,0,0,0,0,0c0.82-2.5,1.8-5.22,2.95-8s2.47-5.72,4-8.6c0.3-.57.61-1.15,0.92-1.73s0.64-1.15,1-1.71,0.49-.85.75-1.27l0,0c0.18-.29.35-0.58,0.54-0.86s0.51-.81.78-1.21,0.72-1.09,1.09-1.63l0,0c0.38-.53.76-1.06,1.15-1.59s0.81-1.06,1.22-1.59l1.16-1.39c0.39-.46.79-0.92,1.19-1.35,0.71-.78,1.44-1.53,2.2-2.26l0.76-.71,0.78-.69,0.92-.79c0.23-.18.45-0.37,0.68-0.54l0.83-.64,0.47-.35,0.48-.34h0a3.1,3.1,0,0,1,.31-0.21c0.66-.47,1.33-0.89,2-1.31a32.83,32.83,0,0,1,6.3-2.93s10.53-3.32,26-2.84h0a95.86,95.86,0,0,1,19.21,2.49,21.91,21.91,0,0,1,6.18,2.5,23.14,23.14,0,0,0-4.27,15.45c0.58,6.58,3.81,11.86,5.37,14.54a3.12,3.12,0,0,1,.23.45C409,309.33,409.09,309.47,409.15,309.61Z" transform="translate(-25.4 -17.67)"/><path class="cls-9" d="M136.81,319s-8-.38-8.08,3,9.7,19.74,10.8,19.36,1.1-9.11,1.1-9.11Z" transform="translate(-25.4 -17.67)"/><polygon class="cls-9" points="257.03 287.66 272.17 308.91 276.28 308.15 268.41 289.05 257.03 287.66"/><path class="cls-1" d="M383.39,273.69c-0.39,0-.77,0-1.16.07-15.5-.48-26,2.84-26,2.84a32.84,32.84,0,0,0-6.3,2.93c-2.64,1.36-4.37,2.4-3.52.36a1.42,1.42,0,0,1,.13-0.26c1.42-2.74,8-7,8-7l0.12,0Z" transform="translate(-25.4 -17.67)"/><path class="cls-12" d="M360.23,282.17" transform="translate(-25.4 -17.67)"/><path class="cls-7" d="M259.79,253.7c8.72,1.68,15.58,2.73,24.25,2.16,0,0,4.92-4.55,7.24-4" transform="translate(-25.4 -17.67)"/><path class="cls-7" d="M319.94,332l0.13,0h0" transform="translate(-25.4 -17.67)"/><path class="cls-7" d="M356.79,363.7l-1.58,0" transform="translate(-25.4 -17.67)"/><path class="cls-4" d="M339.45,294.53S331.15,301,328,308.07l-0.76,1.39,47-10.37L383,296.8a28,28,0,0,1,17.49,1.27h0l3.64,1.14a11.65,11.65,0,0,1-1-6.07C403.41,289.6,365.18,290.73,339.45,294.53Z" transform="translate(-25.4 -17.67)"/><line class="cls-7" x1="322.16" y1="263.39" x2="324.57" y2="275.6"/><path class="cls-7" d="M355.19,363.72c-0.19.13-.38,0.26-0.59,0.37" transform="translate(-25.4 -17.67)"/><line class="cls-7" x1="387.69" y1="308.59" x2="387.68" y2="308.59"/><path class="cls-12" d="M372.7,360.06a8.49,8.49,0,0,1-1.66.72H371a42.75,42.75,0,0,1-6.74,1.43h-0.07c-4,.59-7.7.86-7.7,0.86l0.36-.61h0a8.88,8.88,0,0,0,2.19-2.62c0.43-.82.86-1.76,1.28-2.8h0a78.47,78.47,0,0,0,5.92-5.92s4.15-2.46,6.48-1.7S376.12,358,372.7,360.06Z" transform="translate(-25.4 -17.67)"/><path class="cls-9" d="M370.88,352.28s-2.66,2.09-1.49,6.83C369.39,359.12,371.86,357,370.88,352.28Z" transform="translate(-25.4 -17.67)"/><path class="cls-12" d="M405.39,346.86s3.56-6.15,6.21-5.2c1.19,0.43,1.8,5.57.14,6.93s-8,2-8,2S404.61,348.59,405.39,346.86Z" transform="translate(-25.4 -17.67)"/><path class="cls-18" d="M411.62,343s-1.29,1.36-.64,4.46C411,347.5,412.17,346.14,411.62,343Z" transform="translate(-25.4 -17.67)"/><path class="cls-11" d="M117,326.18c1.14,13-5.34,23.63-14.48,23.63S85,339.22,83.87,326.18s5.33-23.63,14.47-23.63a12.19,12.19,0,0,1,3.6.55C109.58,305.43,116,314.87,117,326.18Z" transform="translate(-25.4 -17.67)"/><path class="cls-9" d="M109.65,324.32c1,11.21-3.36,20.3-9.71,20.3s-12.28-9.09-13.26-20.3,4-19.71,10.39-19.71S108.66,313.11,109.65,324.32Z" transform="translate(-25.4 -17.67)"/><path class="cls-5" d="M108.5,324.33c0.92,10.53-2.52,19.07-7.69,19.07s-10.11-8.54-11-19.07,2.52-19.07,7.69-19.07S107.58,313.8,108.5,324.33Z" transform="translate(-25.4 -17.67)"/><path class="cls-7" d="M158.23,318.11a234.16,234.16,0,0,0,34.32-1.43l20.89-2.42" transform="translate(-25.4 -17.67)"/><line class="cls-7" x1="124.87" y1="300.11" x2="128.67" y2="300.28"/><line class="cls-7" x1="118.23" y1="299.82" x2="122.37" y2="300"/><path class="cls-9" d="M292.27,251.55s-4-.46-8.22,4.3l5-.25Z" transform="translate(-25.4 -17.67)"/><polygon class="cls-4" points="158.91 269.22 180.65 244.63 196.22 246.88 178.87 267.8 158.91 269.22"/><polygon class="cls-4" points="183.8 267.68 199.9 247.48 204.18 248.19 189.21 267.44 183.8 267.68"/><polygon class="cls-4" points="153.03 255.38 144.24 260.25 144.48 264.05 153.03 255.38"/><path class="cls-4" d="M257,270.73h0a4.47,4.47,0,0,1-1.93,4.45l-6.15,4.1,19.75-7.05Z" transform="translate(-25.4 -17.67)"/><path class="cls-4" d="M261.06,258l24.24,5.23s2.38-4.87,14.26-3.92l4.75,0.71L291,256.95v1l-7.84,1-7.37-1.43" transform="translate(-25.4 -17.67)"/><circle class="cls-12" cx="224.26" cy="64.16" r="56.76"/><path class="cls-9" d="M298.15,111.34a56.77,56.77,0,0,1-97.31-.56l36.94-21.33L249,83l1.15,0.67,9.67,5.57h0l2.76,1.59Z" transform="translate(-25.4 -17.67)"/><path class="cls-2" d="M300.76,82.88h0V82.68A1.89,1.89,0,0,1,300.76,82.88Z" transform="translate(-25.4 -17.67)"/><path class="cls-2" d="M213.24,59.88A42,42,0,0,0,201.92,81l-3.33,0a50.84,50.84,0,0,1,7.73-25.2Z" transform="translate(-25.4 -17.67)"/><path class="cls-19" d="M213.24,59.88A42,42,0,0,0,201.92,81l-3.33,0a50.84,50.84,0,0,1,7.73-25.2Z" transform="translate(-25.4 -17.67)"/><path class="cls-2" d="M231.53,49a42,42,0,0,0-18.29,10.86l-6.91-4.1a51.32,51.32,0,0,1,19-17.85Z" transform="translate(-25.4 -17.67)"/><path class="cls-20" d="M231.53,49a42,42,0,0,0-18.29,10.86l-6.91-4.1a51.32,51.32,0,0,1,19-17.85Z" transform="translate(-25.4 -17.67)"/><path class="cls-2" d="M250.42,31.77L250.23,48a41.34,41.34,0,0,0-7.08-.6A42,42,0,0,0,231.53,49l-6.22-11.09a50.85,50.85,0,0,1,24.34-6.16h0.77Z" transform="translate(-25.4 -17.67)"/><path class="cls-21" d="M250.42,31.77L250.23,48a41.34,41.34,0,0,0-7.08-.6A42,42,0,0,0,231.53,49l-6.22-11.09a50.85,50.85,0,0,1,24.34-6.16h0.77Z" transform="translate(-25.4 -17.67)"/><path class="cls-2" d="M275.31,38.67l-9.22,15.52A41.66,41.66,0,0,0,250.23,48l0.19-16.22A50.8,50.8,0,0,1,275.31,38.67Z" transform="translate(-25.4 -17.67)"/><path class="cls-22" d="M275.31,38.67l-9.22,15.52A41.66,41.66,0,0,0,250.23,48l0.19-16.22A50.8,50.8,0,0,1,275.31,38.67Z" transform="translate(-25.4 -17.67)"/><path class="cls-2" d="M293.72,57L278,65.81a42.3,42.3,0,0,0-11.87-11.62l9.22-15.52A51.39,51.39,0,0,1,293.72,57Z" transform="translate(-25.4 -17.67)"/><path class="cls-23" d="M293.72,57L278,65.81a42.3,42.3,0,0,0-11.87-11.62l9.22-15.52A51.39,51.39,0,0,1,293.72,57Z" transform="translate(-25.4 -17.67)"/><path class="cls-2" d="M300.75,82.21L284.57,82A41.79,41.79,0,0,0,278,65.81L293.72,57A50.84,50.84,0,0,1,300.75,82.21Z" transform="translate(-25.4 -17.67)"/><path class="cls-24" d="M300.75,82.21L284.57,82A41.79,41.79,0,0,0,278,65.81L293.72,57A50.84,50.84,0,0,1,300.75,82.21Z" transform="translate(-25.4 -17.67)"/><path class="cls-2" d="M300.77,82.68a1.89,1.89,0,0,1,0,.19,57.25,57.25,0,0,1-2.86,16.52l-13.34-3,0.62-5c0-.65.06-1.3,0.07-2h0v-0.4h0a41.16,41.16,0,0,0-.67-7.07l16.18,0.19c0,0.09,0,.18,0,0.27S300.77,82.62,300.77,82.68Z" transform="translate(-25.4 -17.67)"/><path class="cls-2" d="M202.1,98.36l-1,.21q-0.62-1.87-1.1-3.8a51.51,51.51,0,0,1-1.49-11.9h0V82.68c0-.07,0-0.13,0-0.2,0-.51,0-1,0-1.51l3.33,0a42.3,42.3,0,0,0-.85,8.07c0,0.07,0,.13,0,0.2s0,0.13,0,.2a41.55,41.55,0,0,0,.33,4.84A38.75,38.75,0,0,0,202.1,98.36Z" transform="translate(-25.4 -17.67)"/><path class="cls-3" d="M202.1,98.36l-1,.21q-0.62-1.87-1.1-3.8a51.51,51.51,0,0,1-1.49-11.9h0V82.68c0-.07,0-0.13,0-0.2,0-.51,0-1,0-1.51l3.33,0a42.3,42.3,0,0,0-.85,8.07c0,0.07,0,.13,0,0.2s0,0.13,0,.2a41.55,41.55,0,0,0,.33,4.84A38.75,38.75,0,0,0,202.1,98.36Z" transform="translate(-25.4 -17.67)"/><path class="cls-1" d="M314.36,83" transform="translate(-25.4 -17.67)"/><path class="cls-1" d="M183.64,83" transform="translate(-25.4 -17.67)"/><line class="cls-7" x1="223.6" y1="6.99" x2="223.6"/><line class="cls-7" x1="194.76" y1="15.42" x2="190.92" y2="8.76"/><line class="cls-7" x1="280.21" y1="98.05" x2="272.74" y2="93.74"/><line class="cls-7" x1="174.47" y1="37" x2="166.99" y2="32.68"/><line class="cls-7" x1="288.97" y1="65.36" x2="281.27" y2="65.36"/><line class="cls-7" x1="167.81" y1="65.36" x2="158.24" y2="65.36"/><line class="cls-7" x1="280.21" y1="32.68" x2="274.16" y2="36.18"/><line class="cls-7" x1="175.85" y1="92.93" x2="166.99" y2="98.05"/><line class="cls-7" x1="256.29" y1="8.76" x2="252.93" y2="14.58"/><path class="cls-25" d="M301.8,95.66l-1.07,3.43-2.86-.63-26.58-5.9L259.85,90a12.56,12.56,0,0,0,1.64-3.28,12.77,12.77,0,0,0,.64-4.3L287.76,91h0Z" transform="translate(-25.4 -17.67)"/><path class="cls-18" d="M262.13,82.43A12.8,12.8,0,0,1,259.85,90l-10.28-2.28L252,79.05Z" transform="translate(-25.4 -17.67)"/><path class="cls-25" d="M262.33,81.57a12.83,12.83,0,1,1-1.64-6A12.8,12.8,0,0,1,262.33,81.57Z" transform="translate(-25.4 -17.67)"/><path class="cls-7" d="M171.81,179.28c18.25-8.31,36.45-15.07,54.8-19.52,29.31-7.11,87.47-7.79,87.47-7.79" transform="translate(-25.4 -17.67)"/><path class="cls-7" d="M149.42,190.19q6.66-3.44,13.3-6.65" transform="translate(-25.4 -17.67)"/><path class="cls-7" d="M398.21,189.58l1.6,0.22" transform="translate(-25.4 -17.67)"/><path class="cls-7" d="M388.87,188.32l3.78,0.5" transform="translate(-25.4 -17.67)"/><path class="cls-7" d="M376.33,186.72l6.62,0.83" transform="translate(-25.4 -17.67)"/><path class="cls-7" d="M260.71,186.24a296.87,296.87,0,0,1,53.85-4.1A529.11,529.11,0,0,1,371,186.08" transform="translate(-25.4 -17.67)"/><path class="cls-7" d="M226.84,194.92a209.3,209.3,0,0,1,20.7-6" transform="translate(-25.4 -17.67)"/><path class="cls-26" d="M226,311.88c0.17,0.14,22.81-2,22.72-2" transform="translate(-25.4 -17.67)"/><path class="cls-26" d="M222.1,318c5.7-.48,15.94-0.81,16.21-0.81" transform="translate(-25.4 -17.67)"/><path class="cls-26" d="M224.93,322.83c0.19,0.06,9.45-.2,11.95-0.38" transform="translate(-25.4 -17.67)"/><path class="cls-26" d="M217.82,330.79c0-.42,10.24-0.86,14.16-1.13" transform="translate(-25.4 -17.67)"/><path class="cls-26" d="M224.23,338.62l7.12-.49" transform="translate(-25.4 -17.67)"/><path class="cls-26" d="M84.5,309.77c3.09,0.19,3,.1,6.06.29" transform="translate(-25.4 -17.67)"/><path class="cls-26" d="M82.51,318l7.1,0.6" transform="translate(-25.4 -17.67)"/><path class="cls-26" d="M81.18,321.11l3.2,0.27" transform="translate(-25.4 -17.67)"/><path class="cls-26" d="M327.23,289a247.23,247.23,0,0,1,44.92-4.24" transform="translate(-25.4 -17.67)"/><path class="cls-26" d="M332.18,291.24a90.92,90.92,0,0,1,15.74-1.47" transform="translate(-25.4 -17.67)"/><path class="cls-26" d="M318.69,313l25.3-2.94" transform="translate(-25.4 -17.67)"/><path class="cls-26" d="M315.13,316.95l17.1-2.22" transform="translate(-25.4 -17.67)"/><path class="cls-26" d="M84.33,341.42c0.35,0.49,1.6,1.07,4.81,2.14" transform="translate(-25.4 -17.67)"/><path class="cls-26" d="M121.87,323.54a140.71,140.71,0,0,0,15.92,1.31" transform="translate(-25.4 -17.67)"/><path class="cls-26" d="M126.92,328.27a71.28,71.28,0,0,0,9.27.67" transform="translate(-25.4 -17.67)"/><path class="cls-26" d="M128.7,332.87a79.4,79.4,0,0,0,8.91.89" transform="translate(-25.4 -17.67)"/><path class="cls-27" d="M283.39,336.93L308,336" transform="translate(-25.4 -17.67)"/><path class="cls-27" d="M284.82,340.35l8.91-.36" transform="translate(-25.4 -17.67)"/><path class="cls-27" d="M283.4,344.64l22.1-.36" transform="translate(-25.4 -17.67)"/><path class="cls-27" d="M282.68,352.86l25.66-1.46" transform="translate(-25.4 -17.67)"/><path class="cls-27" d="M282.68,359.66l15.33-.35" transform="translate(-25.4 -17.67)"/><path class="cls-27" d="M279.12,366.33l11.41-.69" transform="translate(-25.4 -17.67)"/><path class="cls-27" d="M269.85,373.15a23.8,23.8,0,0,1,8.55-1.43" transform="translate(-25.4 -17.67)"/><path class="cls-27" d="M106.16,346.92a61.32,61.32,0,0,1,14.69-.43" transform="translate(-25.4 -17.67)"/><path class="cls-27" d="M110.17,342.14h5.7" transform="translate(-25.4 -17.67)"/><path class="cls-27" d="M111.59,338.13l7.49-.33" transform="translate(-25.4 -17.67)"/><path class="cls-27" d="M114.08,334.21l5.7-.34" transform="translate(-25.4 -17.67)"/><path class="cls-27" d="M114.45,329.61l4.28,0.31" transform="translate(-25.4 -17.67)"/><path class="cls-27" d="M364.33,338.79l38.12-4.05" transform="translate(-25.4 -17.67)"/><path class="cls-27" d="M358.6,343.89l30.29-2.9" transform="translate(-25.4 -17.67)"/><path class="cls-27" d="M353.61,348.55c11.41-.71,14.61-1.43,26.38-2.5" transform="translate(-25.4 -17.67)"/><path class="cls-7" d="M323.32,353c0.71,0.71,29.58-.71,29.23-0.71" transform="translate(-25.4 -17.67)"/><path class="cls-7" d="M327.24,357.29l-1.16,0c8.23-.38,9.68-0.73,17.91-1.11" transform="translate(-25.4 -17.67)"/><path class="cls-7" d="M325.1,350h10" transform="translate(-25.4 -17.67)"/><path class="cls-7" d="M329.38,361l22.81-.69" transform="translate(-25.4 -17.67)"/><path class="cls-2" d="M307.41,138.09l6.06-1.22c81.63-10.5,128.8,16.2,128.8,16.2,1-9.41-3.32-27.21-12.73-28.26A17,17,0,0,0,418,127.69,24.46,24.46,0,0,0,389.85,109,24.18,24.18,0,0,0,370,130.36l0,0.15a8.55,8.55,0,0,0-12.57-2.23A19.18,19.18,0,0,0,319.22,126a4.4,4.4,0,0,0-3.19-1.42C308.87,125.18,307,135.42,307.41,138.09Z" transform="translate(-25.4 -17.67)"/><path class="cls-22" d="M307.41,138.09l6.06-1.22c81.63-10.5,128.8,16.2,128.8,16.2,1-9.41-3.32-27.21-12.73-28.26A17,17,0,0,0,418,127.69,24.46,24.46,0,0,0,389.85,109,24.18,24.18,0,0,0,370,130.36l0,0.15a8.55,8.55,0,0,0-12.57-2.23A19.18,19.18,0,0,0,319.22,126a4.4,4.4,0,0,0-3.19-1.42C308.87,125.18,307,135.42,307.41,138.09Z" transform="translate(-25.4 -17.67)"/><path class="cls-2" d="M127.58,173l3.23-2.2c44.91-26.27,79-22.38,79-22.38-1.71-5.73-8.65-15-14.38-13.3a10.75,10.75,0,0,0-6,4.51,15.46,15.46,0,0,0-21-3.9A15.28,15.28,0,0,0,162.12,153l0,0.09a5.4,5.4,0,0,0-7.86,1.81A12.13,12.13,0,0,0,131.47,163a2.78,2.78,0,0,0-2.2,0C125.24,165.11,126.67,171.53,127.58,173Z" transform="translate(-25.4 -17.67)"/><path class="cls-22" d="M127.58,173l3.23-2.2c44.91-26.27,79-22.38,79-22.38-1.71-5.73-8.65-15-14.38-13.3a10.75,10.75,0,0,0-6,4.51,15.46,15.46,0,0,0-21-3.9A15.28,15.28,0,0,0,162.12,153l0,0.09a5.4,5.4,0,0,0-7.86,1.81A12.13,12.13,0,0,0,131.47,163a2.78,2.78,0,0,0-2.2,0C125.24,165.11,126.67,171.53,127.58,173Z" transform="translate(-25.4 -17.67)"/><path class="cls-2" d="M471.77,209.66a281.58,281.58,0,0,0-58.12-6.43l-6.17.38c-0.07-2.71,3.22-12.59,10.4-12.21a4.43,4.43,0,0,1,3,1.84,19.18,19.18,0,0,1,37.54,7.52,8.57,8.57,0,0,1,12.15,3.93S471.41,208,471.77,209.66Z" transform="translate(-25.4 -17.67)"/><path class="cls-22" d="M471.77,209.66a281.58,281.58,0,0,0-58.12-6.43l-6.17.38c-0.07-2.71,3.22-12.59,10.4-12.21a4.43,4.43,0,0,1,3,1.84,19.18,19.18,0,0,1,37.54,7.52,8.57,8.57,0,0,1,12.15,3.93S471.41,208,471.77,209.66Z" transform="translate(-25.4 -17.67)"/></svg>