<?xml version="1.0" encoding="utf-8"?>
<!-- Generator: Adobe Illustrator 19.2.1, SVG Export Plug-In . SVG Version: 6.00 Build 0)  -->
<svg version="1.1" id="svg" xmlns="http://www.w3.org/2000/svg" xmlns:xlink="http://www.w3.org/1999/xlink" x="0px" y="0px"
	 viewBox="0 0 400 400" style="enable-background:new 0 0 400 400;" xml:space="preserve">
<style type="text/css">
	.st0{fill:#FFFFFF;}
</style>
<g id="svgg">
	<path id="path0" class="st0" d="M186.1,0.4C65.7,9.2-19.7,121.1,3.9,239.2c21.6,108.2,127.2,178.6,235.3,156.9
		c108.2-21.7,178.5-127,156.9-235.3C376.5,62.5,285.7-6.8,186.1,0.4 M214.5,32.7c87.6,8,153.1,79.5,153.1,167.3
		c0,60.2-30.3,113.7-81.8,144.5c-9.6,5.7-32.5,15.9-35.8,15.9c-0.1,0-0.2-7.9-0.2-17.7c0-27.8-2.6-36.5-13.5-45l-2.5-2l5.6-0.7
		c49.9-6.3,76.2-29.4,82.6-72.8c4.4-29.8-0.6-52.3-15.4-69.9c-2.9-3.4-2.8-3.2-1.7-6.3c4.2-12.2,3.7-27.9-1.2-42.8l-1.7-5.1
		l-2.1-0.3c-10.6-1.3-27.8,5.1-46.6,17.3c-4.4,2.9-3.7,2.8-10.1,1.2c-26.3-6.4-58.8-6.4-84.6,0c-6.2,1.6-5.2,1.8-11.8-2.5
		c-15.1-9.6-29.7-15.4-40.9-16.1c-6-0.4-5.9-0.4-7.9,5.6c-5,15.3-5.4,30.1-1.1,42.8l1,3l-2,2.3c-11.2,12.6-17,28.4-17.4,47.9
		c-1.3,57.6,26.6,89.2,84.7,95.8l4.6,0.5l-3.5,3.2c-10.4,9.7-12.4,17.3-12.4,47.9c0,8.2-0.2,14-0.4,14c-0.8,0-12.6-4.3-16.8-6
		c-54.6-23.2-92.9-73.1-101-131.3C20.4,127.5,90,40.7,186.7,32.5C190.7,32.2,210.4,32.3,214.5,32.7"/>
</g>
</svg>
